<?xml version="1.0" encoding="UTF-8"?>
<svg width="216px" height="300px" viewBox="0 0 216 300" version="1.1" xmlns="http://www.w3.org/2000/svg" xmlns:xlink="http://www.w3.org/1999/xlink">
    <!-- Generator: Sketch 43.2 (39069) - http://www.bohemiancoding.com/sketch -->
    <title>170218-Thunder-Nerds-logo</title>
    <desc>Created with Sketch.</desc>
    <defs></defs>
    <g id="Page-1" stroke="none" stroke-width="1" fill="none" fill-rule="evenodd">
        <g id="170218-Thunder-Nerds-logo" transform="translate(8.000000, 8.000000)">
            <g>
                <g id="circle">
                    <path d="M199.353279,100.464722 C199.353279,155.564976 154.727049,200.231278 99.6770492,200.231278 C44.6262295,200.231278 0,155.564976 0,100.464722 C0,45.3652898 44.6262295,0.698987755 99.6770492,0.698987755 C154.727049,0.698987755 199.353279,45.3652898 199.353279,100.464722" id="Fill-1" fill="#D9262A" fill-rule="evenodd"></path>
                    <path d="M199.353279,100.464722 C199.353279,155.564976 154.727049,200.231278 99.6770492,200.231278 C44.6262295,200.231278 0,155.564976 0,100.464722 C0,45.3652898 44.6262295,0.698987755 99.6770492,0.698987755 C154.727049,0.698987755 199.353279,45.3652898 199.353279,100.464722 Z" id="Stroke-2" stroke="#0A0A08" stroke-width="16"></path>
                </g>
                <g id="the-T" transform="translate(5.737705, 38.550562)">
                    <path d="M82.6526812,141.764952 L66.5552838,141.764952 L79.8917904,91.8868889 L59.490917,91.8868889 L70.5607511,39.9297889 L70.584559,39.847937 C70.8415197,38.9524778 70.7668122,38.6438963 70.7659913,38.6406222 C70.7659913,38.6414407 70.7651703,38.6414407 70.7643493,38.6414407 C70.7487511,38.6414407 70.6338166,38.5317593 70.5484367,38.4507259 C70.4047686,38.3140333 70.2668472,38.1797963 70.1404192,38.0422852 C70.0295895,37.9817148 69.4450655,37.7189704 67.785083,37.7189704 C64.0316507,37.7189704 59.699441,39.1947593 54.9099563,42.1070481 C50.0153886,45.0799074 45.580559,49.3525741 41.7277904,54.8088185 C40.169607,56.9828037 36.7453799,63.3009481 31.5404891,73.6028222 L30.5627249,75.5369815 L3.86672489,66.0847296 L26.2526812,2.6299 L45.9442445,2.6299 L47.6510218,8.34888889 L140.019773,8.34888889 L142.092699,2.6299 L161.794934,2.6299 L184.315528,66.0945519 L157.248454,75.5247037 L156.273153,73.6118259 C151.303057,63.867363 147.717921,57.4706407 145.616262,54.5984593 C141.510638,48.9629593 136.740035,44.4750222 131.434987,41.2549704 C127.606847,38.9066407 123.811546,37.7189704 120.145135,37.7189704 C118.919441,37.7189704 118.317677,37.9514296 118.109974,38.1216815 C117.295581,39.6555852 113.276157,49.0726407 110.143371,56.5146111 L130.109135,56.5146111 L102.317974,113.576811 L124.156349,113.576811 L67.6693275,206.470478 L82.6526812,141.764952" id="Fill-4" fill="#0A0A08"></path>
                    <path d="M163.536192,0.174344444 L140.363755,0.174344444 L138.29083,5.89333333 L49.4875109,5.89333333 L47.7807336,0.174344444 L24.5081397,0.174344444 L0.72819214,67.5793444 L27.6918253,77.1265444 L31.7851354,78.5753222 L33.7398428,74.7078222 C40.1531878,62.0158741 42.7071965,57.6654481 43.7219039,56.2502296 C47.3981659,51.0436333 51.5867074,47.0001519 56.190655,44.2040926 C60.5901834,41.5299926 64.4905677,40.1737074 67.785083,40.1737074 C67.8573275,40.1737074 67.9254672,40.1745259 67.9911441,40.176163 L56.4492576,94.3424444 L76.6867598,94.3424444 L63.3494323,144.220507 L79.5560175,144.220507 L61.8158777,220.832204 L128.530428,111.121256 L106.251197,111.121256 L134.043179,54.0590556 L113.851651,54.0590556 C116.418795,47.9921963 118.79876,42.4655593 119.852052,40.1802556 C119.938253,40.1769815 120.035948,40.1737074 120.145135,40.1737074 C123.348524,40.1737074 126.709537,41.2394185 130.133764,43.339737 C135.179389,46.4026333 139.710271,50.6703889 143.621328,56.0374148 C145.650742,58.8121926 149.166917,65.0967778 154.077083,74.7241926 L156.028507,78.5507667 L187.46145,67.5998074 L163.536192,0.174344444 Z M160.053677,5.08545556 L181.168786,64.5901148 L158.467581,72.4986407 C153.421135,62.6027519 149.803162,56.1536444 147.606271,53.1513185 C143.292122,47.2309741 138.330236,42.5654185 132.714865,39.1571074 C128.484454,36.5615852 124.294271,35.2625963 120.145135,35.2625963 C118.191249,35.2625963 116.848978,35.7307889 116.116681,36.662263 C115.385205,37.5970111 106.443301,58.9701667 106.443301,58.9701667 L126.175092,58.9701667 L98.3839301,116.032367 L119.783092,116.032367 L73.5227773,192.107933 L85.748524,139.309396 L69.7611354,139.309396 L83.0976419,89.4313333 L62.5317555,89.4313333 L72.9522096,40.5232148 C73.7928734,37.5970111 72.5860611,37.0895296 71.9342183,36.3585926 C71.2831965,35.6301111 69.9006987,35.2625963 67.785083,35.2625963 C63.5530306,35.2625963 58.8333275,36.8456111 53.6276157,40.0100037 C48.419441,43.1735778 43.7818341,47.6345037 39.7139738,53.395237 C38.0860087,55.6666259 34.6281223,62.0338815 29.3403144,72.4986407 L7.00443668,64.5901148 L27.9972227,5.08545556 L44.1077555,5.08545556 L45.8145328,10.8044444 L141.747895,10.8044444 L143.820821,5.08545556 L160.053677,5.08545556 L160.053677,5.08545556 Z" id="Fill-5" fill="#FFFFFF"></path>
                </g>
                <g id="the-text" transform="translate(5.737705, 231.303371)">
                    <path d="M101.987948,23.424 L76.5381659,23.424 L76.5381659,31.6672432 L77.3591266,31.6672432 L77.3591266,53.924 L107.734672,53.924 L107.734672,27.5456216 L101.987948,27.5456216 L101.987948,23.424 Z M134.826376,27.5456216 L130.721572,27.5456216 L130.721572,23.424 L110.197555,23.424 L110.197555,27.5456216 L108.555633,27.5456216 L108.555633,39.0861622 L110.197555,39.0861622 L110.197555,53.924 L138.110218,53.924 L138.110218,31.6672432 L134.826376,31.6672432 L134.826376,27.5456216 Z M176.695371,23.424 L176.695371,16.8294054 L148.782707,16.8294054 L148.782707,21.7753514 L143.035983,21.7753514 L143.035983,36.6131892 L149.603668,36.6131892 L149.603668,40.7348108 L143.856943,40.7348108 L143.856943,49.8023784 L149.603668,49.8023784 L149.603668,53.924 L180.800175,53.924 L180.800175,23.424 L176.695371,23.424 Z M44.5198777,53.924 L74.8962445,53.924 L74.8962445,24.2483243 L44.5198777,24.2483243 L44.5198777,53.924 Z M38.7731528,18.4780541 L26.4587424,18.4780541 L26.4587424,23.424 L14.9652926,23.424 L14.9652926,20.6402568 C14.9652926,19.3320541 14.3200175,18.4780541 13.0171528,18.4780541 L7.10295197,18.4780541 C5.80008734,18.4780541 5.11376419,19.3320541 5.11376419,20.6402568 L5.11376419,51.2383514 C5.11376419,52.5465541 5.80008734,53.924 7.10295197,53.924 L13.0171528,53.924 C14.3200175,53.924 14.9652926,52.5465541 14.9652926,51.2383514 L14.9652926,49.8023784 L26.4587424,49.8023784 L26.4587424,53.924 L38.7731528,53.924 L38.7731528,49.8023784 L42.0569956,49.8023784 L42.0569956,23.424 L38.7731528,23.424 L38.7731528,18.4780541 Z M50.2666026,12.7077838 L56.0141485,12.7077838 L56.0141485,4.46454054 L57.6552489,4.46454054 L57.6552489,1.16724324 L47.8037205,1.16724324 L47.8037205,4.46454054 L50.2666026,4.46454054 L50.2666026,12.7077838 Z M106.913712,11.0591351 L110.197555,11.0591351 L110.197555,4.46454054 L108.555633,4.46454054 L108.555633,2.81589189 L106.913712,2.81589189 L106.913712,1.16724324 L97.8831441,1.16724324 L97.8831441,14.3564324 L106.913712,14.3564324 L106.913712,11.0591351 Z M123.332926,13.5321081 L128.25869,13.5321081 L128.25869,8.58616216 L131.542533,8.58616216 L131.542533,12.7077838 L135.647336,12.7077838 L135.647336,2.81589189 L134.005415,2.81589189 L134.005415,1.16724324 L125.795808,1.16724324 L125.795808,1.99156757 L123.332926,1.99156757 L123.332926,1.16724324 L111.018515,1.16724324 L111.018515,12.7077838 L123.332926,12.7077838 L123.332926,13.5321081 Z M62.5810131,10.2348108 L66.6858166,10.2348108 L66.6858166,12.7077838 L82.2848908,12.7077838 L82.2848908,11.0591351 L84.7477729,11.0591351 L84.7477729,1.99156757 L79.8220087,1.99156757 L79.8220087,10.2348108 L76.5381659,10.2348108 L76.5381659,1.16724324 L66.6858166,1.16724324 L66.6858166,5.28886486 L62.5810131,5.28886486 L62.5810131,1.99156757 L59.2971703,1.99156757 L59.2971703,12.7077838 L62.5810131,12.7077838 L62.5810131,10.2348108 Z M97.0621834,1.16724324 L92.9573799,1.16724324 L92.9573799,3.64021622 L89.6735371,3.64021622 L89.6735371,1.16724324 L85.5687336,1.16724324 L85.5687336,12.7077838 L97.0621834,12.7077838 L97.0621834,1.16724324 L97.0621834,1.16724324 Z" id="Fill-6" fill="#FFFFFF"></path>
                    <g id="copy" fill="#D9262A">
                        <path d="M58.5484541,6.33905405 L59.9917031,6.33905405 L59.9917031,4.88247297 L58.5484541,4.88247297 L58.5484541,6.33905405 Z M58.5484541,4.88247297 L59.9917031,4.88247297 L59.9917031,3.42671622 L58.5484541,3.42671622 L58.5484541,4.88247297 Z M58.5484541,3.42671622 L59.9917031,3.42671622 L59.9917031,2.00640541 L58.5484541,2.00640541 L58.5484541,3.42671622 Z M57.0994585,6.33905405 L58.5492751,6.33905405 L58.5492751,4.88247297 L57.0994585,4.88247297 L57.0994585,6.33905405 Z M57.0994585,4.88247297 L58.5492751,4.88247297 L58.5492751,3.42671622 L57.0994585,3.42671622 L57.0994585,4.88247297 Z M57.0994585,3.42671622 L58.5492751,3.42671622 L58.5492751,2.00640541 L57.0994585,2.00640541 L57.0994585,3.42671622 Z M57.0994585,2.00640541 L58.5492751,2.00640541 L58.5492751,0.549824324 L57.0994585,0.549824324 L57.0994585,2.00640541 Z M55.6562096,15.0043514 L57.0994585,15.0043514 L57.0994585,13.5692027 L55.6562096,13.5692027 L55.6562096,15.0043514 Z M55.6562096,13.5692027 L57.0994585,13.5692027 L57.0994585,12.1497162 L55.6562096,12.1497162 L55.6562096,13.5692027 Z M55.6562096,12.1497162 L57.0994585,12.1497162 L57.0994585,10.6931351 L55.6562096,10.6931351 L55.6562096,12.1497162 Z M55.6562096,10.6931351 L57.0994585,10.6931351 L57.0994585,9.24397297 L55.6562096,9.24397297 L55.6562096,10.6931351 Z M55.6562096,9.24397297 L57.0994585,9.24397297 L57.0994585,7.78821622 L55.6562096,7.78821622 L55.6562096,9.24397297 Z M55.6562096,7.78821622 L57.0994585,7.78821622 L57.0994585,6.33905405 L55.6562096,6.33905405 L55.6562096,7.78821622 Z M55.6562096,6.33905405 L57.0994585,6.33905405 L57.0994585,4.88247297 L55.6562096,4.88247297 L55.6562096,6.33905405 Z M55.6562096,4.88247297 L57.0994585,4.88247297 L57.0994585,3.42671622 L55.6562096,3.42671622 L55.6562096,4.88247297 Z M55.6562096,2.00640541 L57.0994585,2.00640541 L57.0994585,0.549824324 L55.6562096,0.549824324 L55.6562096,2.00640541 Z M54.2047511,15.0043514 L55.6562096,15.0043514 L55.6562096,13.5692027 L54.2047511,13.5692027 L54.2047511,15.0043514 Z M54.2047511,13.5692027 L55.6562096,13.5692027 L55.6562096,12.1497162 L54.2047511,12.1497162 L54.2047511,13.5692027 Z M54.2047511,12.1497162 L55.6562096,12.1497162 L55.6562096,10.6931351 L54.2047511,10.6931351 L54.2047511,12.1497162 Z M54.2047511,10.6931351 L55.6562096,10.6931351 L55.6562096,9.24397297 L54.2047511,9.24397297 L54.2047511,10.6931351 Z M54.2047511,9.24397297 L55.6562096,9.24397297 L55.6562096,7.78821622 L54.2047511,7.78821622 L54.2047511,9.24397297 Z M54.2047511,7.78821622 L55.6562096,7.78821622 L55.6562096,6.33905405 L54.2047511,6.33905405 L54.2047511,7.78821622 Z M54.2047511,6.33905405 L55.6562096,6.33905405 L55.6562096,4.88247297 L54.2047511,4.88247297 L54.2047511,6.33905405 Z M54.2047511,4.88247297 L55.6562096,4.88247297 L55.6562096,3.42671622 L54.2047511,3.42671622 L54.2047511,4.88247297 Z M54.2047511,2.00640541 L55.6562096,2.00640541 L55.6562096,0.549824324 L54.2047511,0.549824324 L54.2047511,2.00640541 Z M52.7557555,15.0043514 L54.2055721,15.0043514 L54.2055721,13.5692027 L52.7557555,13.5692027 L52.7557555,15.0043514 Z M52.7557555,13.5692027 L54.2055721,13.5692027 L54.2055721,12.1497162 L52.7557555,12.1497162 L52.7557555,13.5692027 Z M52.7557555,2.00640541 L54.2055721,2.00640541 L54.2055721,0.549824324 L52.7557555,0.549824324 L52.7557555,2.00640541 Z M51.3412402,15.0043514 L52.7557555,15.0043514 L52.7557555,13.5692027 L51.3412402,13.5692027 L51.3412402,15.0043514 Z M51.3412402,13.5692027 L52.7557555,13.5692027 L52.7557555,12.1497162 L51.3412402,12.1497162 L51.3412402,13.5692027 Z M51.3412402,2.00640541 L52.7557555,2.00640541 L52.7557555,0.549824324 L51.3412402,0.549824324 L51.3412402,2.00640541 Z M49.8906026,13.5692027 L51.3420611,13.5692027 L51.3420611,12.1497162 L49.8906026,12.1497162 L49.8906026,13.5692027 Z M49.8906026,12.1497162 L51.3420611,12.1497162 L51.3420611,10.6931351 L49.8906026,10.6931351 L49.8906026,12.1497162 Z M49.8906026,10.6931351 L51.3420611,10.6931351 L51.3420611,9.24397297 L49.8906026,9.24397297 L49.8906026,10.6931351 Z M49.8906026,9.24397297 L51.3420611,9.24397297 L51.3420611,7.78821622 L49.8906026,7.78821622 L49.8906026,9.24397297 Z M49.8906026,7.78821622 L51.3420611,7.78821622 L51.3420611,6.33905405 L49.8906026,6.33905405 L49.8906026,7.78821622 Z M49.8906026,6.33905405 L51.3420611,6.33905405 L51.3420611,4.88247297 L49.8906026,4.88247297 L49.8906026,6.33905405 Z M49.8906026,4.88247297 L51.3420611,4.88247297 L51.3420611,3.42671622 L49.8906026,3.42671622 L49.8906026,4.88247297 Z M49.8906026,2.00640541 L51.3420611,2.00640541 L51.3420611,0.549824324 L49.8906026,0.549824324 L49.8906026,2.00640541 Z M48.4473537,4.88247297 L49.8906026,4.88247297 L49.8906026,3.42671622 L48.4473537,3.42671622 L48.4473537,4.88247297 Z M48.4473537,2.00640541 L49.8906026,2.00640541 L49.8906026,0.549824324 L48.4473537,0.549824324 L48.4473537,2.00640541 Z M46.9975371,4.88247297 L48.4473537,4.88247297 L48.4473537,3.42671622 L46.9975371,3.42671622 L46.9975371,4.88247297 Z M46.9975371,3.42671622 L48.4473537,3.42671622 L48.4473537,2.00640541 L46.9975371,2.00640541 L46.9975371,3.42671622 Z M46.9975371,2.00640541 L48.4473537,2.00640541 L48.4473537,0.549824324 L46.9975371,0.549824324 L46.9975371,2.00640541 Z" id="Fill-7"></path>
                        <path d="M71.545083,15.0043514 L72.965345,15.0043514 L72.965345,13.5692027 L71.545083,13.5692027 L71.545083,15.0043514 Z M71.545083,13.5692027 L72.965345,13.5692027 L72.965345,12.1497162 L71.545083,12.1497162 L71.545083,13.5692027 Z M71.545083,12.1497162 L72.965345,12.1497162 L72.965345,10.6931351 L71.545083,10.6931351 L71.545083,12.1497162 Z M71.545083,10.6931351 L72.965345,10.6931351 L72.965345,9.24397297 L71.545083,9.24397297 L71.545083,10.6931351 Z M71.545083,9.24397297 L72.965345,9.24397297 L72.965345,7.78821622 L71.545083,7.78821622 L71.545083,9.24397297 Z M71.545083,7.78821622 L72.965345,7.78821622 L72.965345,6.33905405 L71.545083,6.33905405 L71.545083,7.78821622 Z M71.545083,6.33905405 L72.965345,6.33905405 L72.965345,4.88247297 L71.545083,4.88247297 L71.545083,6.33905405 Z M71.545083,4.88247297 L72.965345,4.88247297 L72.965345,3.42671622 L71.545083,3.42671622 L71.545083,4.88247297 Z M71.545083,3.42671622 L72.965345,3.42671622 L72.965345,2.00640541 L71.545083,2.00640541 L71.545083,3.42671622 Z M70.1018341,15.0043514 L71.545083,15.0043514 L71.545083,13.5692027 L70.1018341,13.5692027 L70.1018341,15.0043514 Z M70.1018341,13.5692027 L71.545083,13.5692027 L71.545083,12.1497162 L70.1018341,12.1497162 L70.1018341,13.5692027 Z M70.1018341,12.1497162 L71.545083,12.1497162 L71.545083,10.6931351 L70.1018341,10.6931351 L70.1018341,12.1497162 Z M70.1018341,10.6931351 L71.545083,10.6931351 L71.545083,9.24397297 L70.1018341,9.24397297 L70.1018341,10.6931351 Z M70.1018341,9.24397297 L71.545083,9.24397297 L71.545083,7.78821622 L70.1018341,7.78821622 L70.1018341,9.24397297 Z M70.1018341,7.78821622 L71.545083,7.78821622 L71.545083,6.33905405 L70.1018341,6.33905405 L70.1018341,7.78821622 Z M70.1018341,6.33905405 L71.545083,6.33905405 L71.545083,4.88247297 L70.1018341,4.88247297 L70.1018341,6.33905405 Z M70.1018341,4.88247297 L71.545083,4.88247297 L71.545083,3.42671622 L70.1018341,3.42671622 L70.1018341,4.88247297 Z M70.1018341,3.42671622 L71.545083,3.42671622 L71.545083,2.00640541 L70.1018341,2.00640541 L70.1018341,3.42671622 Z M70.1018341,2.00640541 L71.545083,2.00640541 L71.545083,0.549824324 L70.1018341,0.549824324 L70.1018341,2.00640541 Z M68.6503755,15.0043514 L70.1018341,15.0043514 L70.1018341,13.5692027 L68.6503755,13.5692027 L68.6503755,15.0043514 Z M68.6503755,13.5692027 L70.1018341,13.5692027 L70.1018341,12.1497162 L68.6503755,12.1497162 L68.6503755,13.5692027 Z M68.6503755,2.00640541 L70.1018341,2.00640541 L70.1018341,0.549824324 L68.6503755,0.549824324 L68.6503755,2.00640541 Z M67.2071266,15.0043514 L68.6503755,15.0043514 L68.6503755,13.5692027 L67.2071266,13.5692027 L67.2071266,15.0043514 Z M67.2071266,13.5692027 L68.6503755,13.5692027 L68.6503755,12.1497162 L67.2071266,12.1497162 L67.2071266,13.5692027 Z M67.2071266,2.00640541 L68.6503755,2.00640541 L68.6503755,0.549824324 L67.2071266,0.549824324 L67.2071266,2.00640541 Z M65.758131,13.5692027 L67.2079476,13.5692027 L67.2079476,12.1497162 L65.758131,12.1497162 L65.758131,13.5692027 Z M65.758131,12.1497162 L67.2079476,12.1497162 L67.2079476,10.6931351 L65.758131,10.6931351 L65.758131,12.1497162 Z M65.758131,10.6931351 L67.2079476,10.6931351 L67.2079476,9.24397297 L65.758131,9.24397297 L65.758131,10.6931351 Z M65.758131,9.24397297 L67.2079476,9.24397297 L67.2079476,7.78821622 L65.758131,7.78821622 L65.758131,9.24397297 Z M65.758131,6.33905405 L67.2079476,6.33905405 L67.2079476,4.88247297 L65.758131,4.88247297 L65.758131,6.33905405 Z M65.758131,4.88247297 L67.2079476,4.88247297 L67.2079476,3.42671622 L65.758131,3.42671622 L65.758131,4.88247297 Z M65.758131,3.42671622 L67.2079476,3.42671622 L67.2079476,2.00640541 L65.758131,2.00640541 L65.758131,3.42671622 Z M65.758131,2.00640541 L67.2079476,2.00640541 L67.2079476,0.549824324 L65.758131,0.549824324 L65.758131,2.00640541 Z M64.3066725,15.0043514 L65.758131,15.0043514 L65.758131,13.5692027 L64.3066725,13.5692027 L64.3066725,15.0043514 Z M64.3066725,13.5692027 L65.758131,13.5692027 L65.758131,12.1497162 L64.3066725,12.1497162 L64.3066725,13.5692027 Z M64.3066725,12.1497162 L65.758131,12.1497162 L65.758131,10.6931351 L64.3066725,10.6931351 L64.3066725,12.1497162 Z M64.3066725,10.6931351 L65.758131,10.6931351 L65.758131,9.24397297 L64.3066725,9.24397297 L64.3066725,10.6931351 Z M64.3066725,9.24397297 L65.758131,9.24397297 L65.758131,7.78821622 L64.3066725,7.78821622 L64.3066725,9.24397297 Z M64.3066725,6.33905405 L65.758131,6.33905405 L65.758131,4.88247297 L64.3066725,4.88247297 L64.3066725,6.33905405 Z M64.3066725,4.88247297 L65.758131,4.88247297 L65.758131,3.42671622 L64.3066725,3.42671622 L64.3066725,4.88247297 Z M64.3066725,3.42671622 L65.758131,3.42671622 L65.758131,2.00640541 L64.3066725,2.00640541 L64.3066725,3.42671622 Z M62.8921572,15.0043514 L64.3066725,15.0043514 L64.3066725,13.5692027 L62.8921572,13.5692027 L62.8921572,15.0043514 Z M62.8921572,13.5692027 L64.3066725,13.5692027 L64.3066725,12.1497162 L62.8921572,12.1497162 L62.8921572,13.5692027 Z M62.8921572,12.1497162 L64.3066725,12.1497162 L64.3066725,10.6931351 L62.8921572,10.6931351 L62.8921572,12.1497162 Z M62.8921572,10.6931351 L64.3066725,10.6931351 L64.3066725,9.24397297 L62.8921572,9.24397297 L62.8921572,10.6931351 Z M62.8921572,9.24397297 L64.3066725,9.24397297 L64.3066725,7.78821622 L62.8921572,7.78821622 L62.8921572,9.24397297 Z M62.8921572,6.33905405 L64.3066725,6.33905405 L64.3066725,4.88247297 L62.8921572,4.88247297 L62.8921572,6.33905405 Z M62.8921572,4.88247297 L64.3066725,4.88247297 L64.3066725,3.42671622 L62.8921572,3.42671622 L62.8921572,4.88247297 Z M62.8921572,3.42671622 L64.3066725,3.42671622 L64.3066725,2.00640541 L62.8921572,2.00640541 L62.8921572,3.42671622 Z M62.8921572,2.00640541 L64.3066725,2.00640541 L64.3066725,0.549824324 L62.8921572,0.549824324 L62.8921572,2.00640541 Z M61.4431616,15.0043514 L62.8929782,15.0043514 L62.8929782,13.5692027 L61.4431616,13.5692027 L61.4431616,15.0043514 Z M61.4431616,13.5692027 L62.8929782,13.5692027 L62.8929782,12.1497162 L61.4431616,12.1497162 L61.4431616,13.5692027 Z M61.4431616,2.00640541 L62.8929782,2.00640541 L62.8929782,0.549824324 L61.4431616,0.549824324 L61.4431616,2.00640541 Z M59.9999127,15.0043514 L61.4431616,15.0043514 L61.4431616,13.5692027 L59.9999127,13.5692027 L59.9999127,15.0043514 Z M59.9999127,13.5692027 L61.4431616,13.5692027 L61.4431616,12.1497162 L59.9999127,12.1497162 L59.9999127,13.5692027 Z M59.9999127,2.00640541 L61.4431616,2.00640541 L61.4431616,0.549824324 L59.9999127,0.549824324 L59.9999127,2.00640541 Z M58.5484541,13.5692027 L59.9999127,13.5692027 L59.9999127,12.1497162 L58.5484541,12.1497162 L58.5484541,13.5692027 Z M58.5484541,12.1497162 L59.9999127,12.1497162 L59.9999127,10.6931351 L58.5484541,10.6931351 L58.5484541,12.1497162 Z M58.5484541,10.6931351 L59.9999127,10.6931351 L59.9999127,9.24397297 L58.5484541,9.24397297 L58.5484541,10.6931351 Z M58.5484541,9.24397297 L59.9999127,9.24397297 L59.9999127,7.78821622 L58.5484541,7.78821622 L58.5484541,9.24397297 Z M58.5484541,7.78821622 L59.9999127,7.78821622 L59.9999127,6.33905405 L58.5484541,6.33905405 L58.5484541,7.78821622 Z M58.5484541,6.33905405 L59.9999127,6.33905405 L59.9999127,4.88247297 L58.5484541,4.88247297 L58.5484541,6.33905405 Z M58.5484541,4.88247297 L59.9999127,4.88247297 L59.9999127,3.42671622 L58.5484541,3.42671622 L58.5484541,4.88247297 Z M58.5484541,3.42671622 L59.9999127,3.42671622 L59.9999127,2.00640541 L58.5484541,2.00640541 L58.5484541,3.42671622 Z M58.5484541,2.00640541 L59.9999127,2.00640541 L59.9999127,0.549824324 L58.5484541,0.549824324 L58.5484541,2.00640541 Z" id="Fill-8"></path>
                        <path d="M84.4998428,13.5692027 L85.9217467,13.5692027 L85.9217467,12.1497162 L84.4998428,12.1497162 L84.4998428,13.5692027 Z M84.4998428,12.1497162 L85.9217467,12.1497162 L85.9217467,10.6931351 L84.4998428,10.6931351 L84.4998428,12.1497162 Z M84.4998428,10.6931351 L85.9217467,10.6931351 L85.9217467,9.24397297 L84.4998428,9.24397297 L84.4998428,10.6931351 Z M84.4998428,9.24397297 L85.9217467,9.24397297 L85.9217467,7.78821622 L84.4998428,7.78821622 L84.4998428,9.24397297 Z M84.4998428,7.78821622 L85.9217467,7.78821622 L85.9217467,6.33905405 L84.4998428,6.33905405 L84.4998428,7.78821622 Z M84.4998428,6.33905405 L85.9217467,6.33905405 L85.9217467,4.88247297 L84.4998428,4.88247297 L84.4998428,6.33905405 Z M84.4998428,4.88247297 L85.9217467,4.88247297 L85.9217467,3.42671622 L84.4998428,3.42671622 L84.4998428,4.88247297 Z M84.4998428,3.42671622 L85.9217467,3.42671622 L85.9217467,2.00640541 L84.4998428,2.00640541 L84.4998428,3.42671622 Z M83.0565939,15.0043514 L84.4998428,15.0043514 L84.4998428,13.5692027 L83.0565939,13.5692027 L83.0565939,15.0043514 Z M83.0565939,13.5692027 L84.4998428,13.5692027 L84.4998428,12.1497162 L83.0565939,12.1497162 L83.0565939,13.5692027 Z M83.0565939,12.1497162 L84.4998428,12.1497162 L84.4998428,10.6931351 L83.0565939,10.6931351 L83.0565939,12.1497162 Z M83.0565939,10.6931351 L84.4998428,10.6931351 L84.4998428,9.24397297 L83.0565939,9.24397297 L83.0565939,10.6931351 Z M83.0565939,9.24397297 L84.4998428,9.24397297 L84.4998428,7.78821622 L83.0565939,7.78821622 L83.0565939,9.24397297 Z M83.0565939,7.78821622 L84.4998428,7.78821622 L84.4998428,6.33905405 L83.0565939,6.33905405 L83.0565939,7.78821622 Z M83.0565939,6.33905405 L84.4998428,6.33905405 L84.4998428,4.88247297 L83.0565939,4.88247297 L83.0565939,6.33905405 Z M83.0565939,4.88247297 L84.4998428,4.88247297 L84.4998428,3.42671622 L83.0565939,3.42671622 L83.0565939,4.88247297 Z M83.0565939,3.42671622 L84.4998428,3.42671622 L84.4998428,2.00640541 L83.0565939,2.00640541 L83.0565939,3.42671622 Z M83.0565939,2.00640541 L84.4998428,2.00640541 L84.4998428,0.549824324 L83.0565939,0.549824324 L83.0565939,2.00640541 Z M81.6067773,15.0043514 L83.0565939,15.0043514 L83.0565939,13.5692027 L81.6067773,13.5692027 L81.6067773,15.0043514 Z M81.6067773,13.5692027 L83.0565939,13.5692027 L83.0565939,12.1497162 L81.6067773,12.1497162 L81.6067773,13.5692027 Z M81.6067773,12.1497162 L83.0565939,12.1497162 L83.0565939,10.6931351 L81.6067773,10.6931351 L81.6067773,12.1497162 Z M81.6067773,2.00640541 L83.0565939,2.00640541 L83.0565939,0.549824324 L81.6067773,0.549824324 L81.6067773,2.00640541 Z M80.1643493,15.0043514 L81.6067773,15.0043514 L81.6067773,13.5692027 L80.1643493,13.5692027 L80.1643493,15.0043514 Z M80.1643493,13.5692027 L81.6067773,13.5692027 L81.6067773,12.1497162 L80.1643493,12.1497162 L80.1643493,13.5692027 Z M80.1643493,2.00640541 L81.6067773,2.00640541 L81.6067773,0.549824324 L80.1643493,0.549824324 L80.1643493,2.00640541 Z M78.7128908,15.0043514 L80.1643493,15.0043514 L80.1643493,13.5692027 L78.7128908,13.5692027 L78.7128908,15.0043514 Z M78.7128908,13.5692027 L80.1643493,13.5692027 L80.1643493,12.1497162 L78.7128908,12.1497162 L78.7128908,13.5692027 Z M78.7128908,10.6931351 L80.1643493,10.6931351 L80.1643493,9.24397297 L78.7128908,9.24397297 L78.7128908,10.6931351 Z M78.7128908,9.24397297 L80.1643493,9.24397297 L80.1643493,7.78821622 L78.7128908,7.78821622 L78.7128908,9.24397297 Z M78.7128908,7.78821622 L80.1643493,7.78821622 L80.1643493,6.33905405 L78.7128908,6.33905405 L78.7128908,7.78821622 Z M78.7128908,6.33905405 L80.1643493,6.33905405 L80.1643493,4.88247297 L78.7128908,4.88247297 L78.7128908,6.33905405 Z M78.7128908,4.88247297 L80.1643493,4.88247297 L80.1643493,3.42671622 L78.7128908,3.42671622 L78.7128908,4.88247297 Z M78.7128908,3.42671622 L80.1643493,3.42671622 L80.1643493,2.00640541 L78.7128908,2.00640541 L78.7128908,3.42671622 Z M78.7128908,2.00640541 L80.1643493,2.00640541 L80.1643493,0.549824324 L78.7128908,0.549824324 L78.7128908,2.00640541 Z M77.2630742,15.0043514 L78.7128908,15.0043514 L78.7128908,13.5692027 L77.2630742,13.5692027 L77.2630742,15.0043514 Z M77.2630742,13.5692027 L78.7128908,13.5692027 L78.7128908,12.1497162 L77.2630742,12.1497162 L77.2630742,13.5692027 Z M77.2630742,10.6931351 L78.7128908,10.6931351 L78.7128908,9.24397297 L77.2630742,9.24397297 L77.2630742,10.6931351 Z M77.2630742,9.24397297 L78.7128908,9.24397297 L78.7128908,7.78821622 L77.2630742,7.78821622 L77.2630742,9.24397297 Z M77.2630742,7.78821622 L78.7128908,7.78821622 L78.7128908,6.33905405 L77.2630742,6.33905405 L77.2630742,7.78821622 Z M77.2630742,6.33905405 L78.7128908,6.33905405 L78.7128908,4.88247297 L77.2630742,4.88247297 L77.2630742,6.33905405 Z M77.2630742,4.88247297 L78.7128908,4.88247297 L78.7128908,3.42671622 L77.2630742,3.42671622 L77.2630742,4.88247297 Z M77.2630742,3.42671622 L78.7128908,3.42671622 L78.7128908,2.00640541 L77.2630742,2.00640541 L77.2630742,3.42671622 Z M75.8493799,15.0043514 L77.2630742,15.0043514 L77.2630742,13.5692027 L75.8493799,13.5692027 L75.8493799,15.0043514 Z M75.8493799,13.5692027 L77.2630742,13.5692027 L77.2630742,12.1497162 L75.8493799,12.1497162 L75.8493799,13.5692027 Z M75.8493799,10.6931351 L77.2630742,10.6931351 L77.2630742,9.24397297 L75.8493799,9.24397297 L75.8493799,10.6931351 Z M75.8493799,9.24397297 L77.2630742,9.24397297 L77.2630742,7.78821622 L75.8493799,7.78821622 L75.8493799,9.24397297 Z M75.8493799,7.78821622 L77.2630742,7.78821622 L77.2630742,6.33905405 L75.8493799,6.33905405 L75.8493799,7.78821622 Z M75.8493799,6.33905405 L77.2630742,6.33905405 L77.2630742,4.88247297 L75.8493799,4.88247297 L75.8493799,6.33905405 Z M75.8493799,4.88247297 L77.2630742,4.88247297 L77.2630742,3.42671622 L75.8493799,3.42671622 L75.8493799,4.88247297 Z M75.8493799,3.42671622 L77.2630742,3.42671622 L77.2630742,2.00640541 L75.8493799,2.00640541 L75.8493799,3.42671622 Z M75.8493799,2.00640541 L77.2630742,2.00640541 L77.2630742,0.549824324 L75.8493799,0.549824324 L75.8493799,2.00640541 Z M74.3979214,15.0043514 L75.8493799,15.0043514 L75.8493799,13.5692027 L74.3979214,13.5692027 L74.3979214,15.0043514 Z M74.3979214,13.5692027 L75.8493799,13.5692027 L75.8493799,12.1497162 L74.3979214,12.1497162 L74.3979214,13.5692027 Z M74.3979214,2.00640541 L75.8493799,2.00640541 L75.8493799,0.549824324 L74.3979214,0.549824324 L74.3979214,2.00640541 Z M72.9546725,13.5692027 L74.3979214,13.5692027 L74.3979214,12.1497162 L72.9546725,12.1497162 L72.9546725,13.5692027 Z M72.9546725,12.1497162 L74.3979214,12.1497162 L74.3979214,10.6931351 L72.9546725,10.6931351 L72.9546725,12.1497162 Z M72.9546725,2.00640541 L74.3979214,2.00640541 L74.3979214,0.549824324 L72.9546725,0.549824324 L72.9546725,2.00640541 Z M71.5056769,12.1497162 L72.9546725,12.1497162 L72.9546725,10.6931351 L71.5056769,10.6931351 L71.5056769,12.1497162 Z M71.5056769,10.6931351 L72.9546725,10.6931351 L72.9546725,9.24397297 L71.5056769,9.24397297 L71.5056769,10.6931351 Z M71.5056769,9.24397297 L72.9546725,9.24397297 L72.9546725,7.78821622 L71.5056769,7.78821622 L71.5056769,9.24397297 Z M71.5056769,7.78821622 L72.9546725,7.78821622 L72.9546725,6.33905405 L71.5056769,6.33905405 L71.5056769,7.78821622 Z M71.5056769,6.33905405 L72.9546725,6.33905405 L72.9546725,4.88247297 L71.5056769,4.88247297 L71.5056769,6.33905405 Z M71.5056769,4.88247297 L72.9546725,4.88247297 L72.9546725,3.42671622 L71.5056769,3.42671622 L71.5056769,4.88247297 Z M71.5056769,3.42671622 L72.9546725,3.42671622 L72.9546725,2.00640541 L71.5056769,2.00640541 L71.5056769,3.42671622 Z M71.5056769,2.00640541 L72.9546725,2.00640541 L72.9546725,0.549824324 L71.5056769,0.549824324 L71.5056769,2.00640541 Z" id="Fill-9"></path>
                        <path d="M97.4726638,15.0043514 L98.8929258,15.0043514 L98.8929258,13.5692027 L97.4726638,13.5692027 L97.4726638,15.0043514 Z M97.4726638,13.5692027 L98.8929258,13.5692027 L98.8929258,12.1497162 L97.4726638,12.1497162 L97.4726638,13.5692027 Z M97.4726638,12.1497162 L98.8929258,12.1497162 L98.8929258,10.6931351 L97.4726638,10.6931351 L97.4726638,12.1497162 Z M97.4726638,10.6931351 L98.8929258,10.6931351 L98.8929258,9.24397297 L97.4726638,9.24397297 L97.4726638,10.6931351 Z M97.4726638,9.24397297 L98.8929258,9.24397297 L98.8929258,7.78821622 L97.4726638,7.78821622 L97.4726638,9.24397297 Z M97.4726638,7.78821622 L98.8929258,7.78821622 L98.8929258,6.33905405 L97.4726638,6.33905405 L97.4726638,7.78821622 Z M97.4726638,6.33905405 L98.8929258,6.33905405 L98.8929258,4.88247297 L97.4726638,4.88247297 L97.4726638,6.33905405 Z M97.4726638,4.88247297 L98.8929258,4.88247297 L98.8929258,3.42671622 L97.4726638,3.42671622 L97.4726638,4.88247297 Z M97.4726638,3.42671622 L98.8929258,3.42671622 L98.8929258,2.00640541 L97.4726638,2.00640541 L97.4726638,3.42671622 Z M96.0294148,15.0043514 L97.4726638,15.0043514 L97.4726638,13.5692027 L96.0294148,13.5692027 L96.0294148,15.0043514 Z M96.0294148,13.5692027 L97.4726638,13.5692027 L97.4726638,12.1497162 L96.0294148,12.1497162 L96.0294148,13.5692027 Z M96.0294148,12.1497162 L97.4726638,12.1497162 L97.4726638,10.6931351 L96.0294148,10.6931351 L96.0294148,12.1497162 Z M96.0294148,10.6931351 L97.4726638,10.6931351 L97.4726638,9.24397297 L96.0294148,9.24397297 L96.0294148,10.6931351 Z M96.0294148,9.24397297 L97.4726638,9.24397297 L97.4726638,7.78821622 L96.0294148,7.78821622 L96.0294148,9.24397297 Z M96.0294148,7.78821622 L97.4726638,7.78821622 L97.4726638,6.33905405 L96.0294148,6.33905405 L96.0294148,7.78821622 Z M96.0294148,6.33905405 L97.4726638,6.33905405 L97.4726638,4.88247297 L96.0294148,4.88247297 L96.0294148,6.33905405 Z M96.0294148,4.88247297 L97.4726638,4.88247297 L97.4726638,3.42671622 L96.0294148,3.42671622 L96.0294148,4.88247297 Z M96.0294148,3.42671622 L97.4726638,3.42671622 L97.4726638,2.00640541 L96.0294148,2.00640541 L96.0294148,3.42671622 Z M96.0294148,2.00640541 L97.4726638,2.00640541 L97.4726638,0.549824324 L96.0294148,0.549824324 L96.0294148,2.00640541 Z M94.5779563,15.0043514 L96.0294148,15.0043514 L96.0294148,13.5692027 L94.5779563,13.5692027 L94.5779563,15.0043514 Z M94.5779563,13.5692027 L96.0294148,13.5692027 L96.0294148,12.1497162 L94.5779563,12.1497162 L94.5779563,13.5692027 Z M94.5779563,2.00640541 L96.0294148,2.00640541 L96.0294148,0.549824324 L94.5779563,0.549824324 L94.5779563,2.00640541 Z M93.1347074,15.0043514 L94.5779563,15.0043514 L94.5779563,13.5692027 L93.1347074,13.5692027 L93.1347074,15.0043514 Z M93.1347074,13.5692027 L94.5779563,13.5692027 L94.5779563,12.1497162 L93.1347074,12.1497162 L93.1347074,13.5692027 Z M93.1347074,2.00640541 L94.5779563,2.00640541 L94.5779563,0.549824324 L93.1347074,0.549824324 L93.1347074,2.00640541 Z M91.6857118,13.5692027 L93.1347074,13.5692027 L93.1347074,12.1497162 L91.6857118,12.1497162 L91.6857118,13.5692027 Z M91.6857118,12.1497162 L93.1347074,12.1497162 L93.1347074,10.6931351 L91.6857118,10.6931351 L91.6857118,12.1497162 Z M91.6857118,10.6931351 L93.1347074,10.6931351 L93.1347074,9.24397297 L91.6857118,9.24397297 L91.6857118,10.6931351 Z M91.6857118,6.33905405 L93.1347074,6.33905405 L93.1347074,4.88247297 L91.6857118,4.88247297 L91.6857118,6.33905405 Z M91.6857118,4.88247297 L93.1347074,4.88247297 L93.1347074,3.42671622 L91.6857118,3.42671622 L91.6857118,4.88247297 Z M91.6857118,3.42671622 L93.1347074,3.42671622 L93.1347074,2.00640541 L91.6857118,2.00640541 L91.6857118,3.42671622 Z M91.6857118,2.00640541 L93.1347074,2.00640541 L93.1347074,0.549824324 L91.6857118,0.549824324 L91.6857118,2.00640541 Z M90.2342533,15.0043514 L91.6857118,15.0043514 L91.6857118,13.5692027 L90.2342533,13.5692027 L90.2342533,15.0043514 Z M90.2342533,13.5692027 L91.6857118,13.5692027 L91.6857118,12.1497162 L90.2342533,12.1497162 L90.2342533,13.5692027 Z M90.2342533,12.1497162 L91.6857118,12.1497162 L91.6857118,10.6931351 L90.2342533,10.6931351 L90.2342533,12.1497162 Z M90.2342533,10.6931351 L91.6857118,10.6931351 L91.6857118,9.24397297 L90.2342533,9.24397297 L90.2342533,10.6931351 Z M90.2342533,9.24397297 L91.6857118,9.24397297 L91.6857118,7.78821622 L90.2342533,7.78821622 L90.2342533,9.24397297 Z M90.2342533,4.88247297 L91.6857118,4.88247297 L91.6857118,3.42671622 L90.2342533,3.42671622 L90.2342533,4.88247297 Z M90.2342533,3.42671622 L91.6857118,3.42671622 L91.6857118,2.00640541 L90.2342533,2.00640541 L90.2342533,3.42671622 Z M88.819738,15.0043514 L90.2342533,15.0043514 L90.2342533,13.5692027 L88.819738,13.5692027 L88.819738,15.0043514 Z M88.819738,13.5692027 L90.2342533,13.5692027 L90.2342533,12.1497162 L88.819738,12.1497162 L88.819738,13.5692027 Z M88.819738,12.1497162 L90.2342533,12.1497162 L90.2342533,10.6931351 L88.819738,10.6931351 L88.819738,12.1497162 Z M88.819738,10.6931351 L90.2342533,10.6931351 L90.2342533,9.24397297 L88.819738,9.24397297 L88.819738,10.6931351 Z M88.819738,9.24397297 L90.2342533,9.24397297 L90.2342533,7.78821622 L88.819738,7.78821622 L88.819738,9.24397297 Z M88.819738,7.78821622 L90.2342533,7.78821622 L90.2342533,6.33905405 L88.819738,6.33905405 L88.819738,7.78821622 Z M88.819738,3.42671622 L90.2342533,3.42671622 L90.2342533,2.00640541 L88.819738,2.00640541 L88.819738,3.42671622 Z M88.819738,2.00640541 L90.2342533,2.00640541 L90.2342533,0.549824324 L88.819738,0.549824324 L88.819738,2.00640541 Z M87.3707424,15.0043514 L88.819738,15.0043514 L88.819738,13.5692027 L87.3707424,13.5692027 L87.3707424,15.0043514 Z M87.3707424,13.5692027 L88.819738,13.5692027 L88.819738,12.1497162 L87.3707424,12.1497162 L87.3707424,13.5692027 Z M87.3707424,2.00640541 L88.819738,2.00640541 L88.819738,0.549824324 L87.3707424,0.549824324 L87.3707424,2.00640541 Z M85.9274934,15.0043514 L87.3707424,15.0043514 L87.3707424,13.5692027 L85.9274934,13.5692027 L85.9274934,15.0043514 Z M85.9274934,13.5692027 L87.3707424,13.5692027 L87.3707424,12.1497162 L85.9274934,12.1497162 L85.9274934,13.5692027 Z M85.9274934,2.00640541 L87.3707424,2.00640541 L87.3707424,0.549824324 L85.9274934,0.549824324 L85.9274934,2.00640541 Z M84.4760349,13.5692027 L85.9274934,13.5692027 L85.9274934,12.1497162 L84.4760349,12.1497162 L84.4760349,13.5692027 Z M84.4760349,12.1497162 L85.9274934,12.1497162 L85.9274934,10.6931351 L84.4760349,10.6931351 L84.4760349,12.1497162 Z M84.4760349,10.6931351 L85.9274934,10.6931351 L85.9274934,9.24397297 L84.4760349,9.24397297 L84.4760349,10.6931351 Z M84.4760349,9.24397297 L85.9274934,9.24397297 L85.9274934,7.78821622 L84.4760349,7.78821622 L84.4760349,9.24397297 Z M84.4760349,7.78821622 L85.9274934,7.78821622 L85.9274934,6.33905405 L84.4760349,6.33905405 L84.4760349,7.78821622 Z M84.4760349,6.33905405 L85.9274934,6.33905405 L85.9274934,4.88247297 L84.4760349,4.88247297 L84.4760349,6.33905405 Z M84.4760349,4.88247297 L85.9274934,4.88247297 L85.9274934,3.42671622 L84.4760349,3.42671622 L84.4760349,4.88247297 Z M84.4760349,3.42671622 L85.9274934,3.42671622 L85.9274934,2.00640541 L84.4760349,2.00640541 L84.4760349,3.42671622 Z M84.4760349,2.00640541 L85.9274934,2.00640541 L85.9274934,0.549824324 L84.4760349,0.549824324 L84.4760349,2.00640541 Z" id="Fill-10"></path>
                        <path d="M110.44138,12.1497162 L111.864105,12.1497162 L111.864105,10.6931351 L110.44138,10.6931351 L110.44138,12.1497162 Z M110.44138,10.6931351 L111.864105,10.6931351 L111.864105,9.24397297 L110.44138,9.24397297 L110.44138,10.6931351 Z M110.44138,9.24397297 L111.864105,9.24397297 L111.864105,7.78821622 L110.44138,7.78821622 L110.44138,9.24397297 Z M110.44138,7.78821622 L111.864105,7.78821622 L111.864105,6.33905405 L110.44138,6.33905405 L110.44138,7.78821622 Z M110.44138,6.33905405 L111.864105,6.33905405 L111.864105,4.88247297 L110.44138,4.88247297 L110.44138,6.33905405 Z M108.998952,13.5692027 L110.44138,13.5692027 L110.44138,12.1497162 L108.998952,12.1497162 L108.998952,13.5692027 Z M108.998952,12.1497162 L110.44138,12.1497162 L110.44138,10.6931351 L108.998952,10.6931351 L108.998952,12.1497162 Z M108.998952,10.6931351 L110.44138,10.6931351 L110.44138,9.24397297 L108.998952,9.24397297 L108.998952,10.6931351 Z M108.998952,9.24397297 L110.44138,9.24397297 L110.44138,7.78821622 L108.998952,7.78821622 L108.998952,9.24397297 Z M108.998952,7.78821622 L110.44138,7.78821622 L110.44138,6.33905405 L108.998952,6.33905405 L108.998952,7.78821622 Z M108.998952,6.33905405 L110.44138,6.33905405 L110.44138,4.88247297 L108.998952,4.88247297 L108.998952,6.33905405 Z M108.998952,4.88247297 L110.44138,4.88247297 L110.44138,3.42671622 L108.998952,3.42671622 L108.998952,4.88247297 Z M107.549135,15.0043514 L108.998952,15.0043514 L108.998952,13.5692027 L107.549135,13.5692027 L107.549135,15.0043514 Z M107.549135,13.5692027 L108.998952,13.5692027 L108.998952,12.1497162 L107.549135,12.1497162 L107.549135,13.5692027 Z M107.549135,12.1497162 L108.998952,12.1497162 L108.998952,10.6931351 L107.549135,10.6931351 L107.549135,12.1497162 Z M107.549135,10.6931351 L108.998952,10.6931351 L108.998952,9.24397297 L107.549135,9.24397297 L107.549135,10.6931351 Z M107.549135,4.88247297 L108.998952,4.88247297 L108.998952,3.42671622 L107.549135,3.42671622 L107.549135,4.88247297 Z M107.549135,3.42671622 L108.998952,3.42671622 L108.998952,2.00640541 L107.549135,2.00640541 L107.549135,3.42671622 Z M106.105886,15.0043514 L107.549135,15.0043514 L107.549135,13.5692027 L106.105886,13.5692027 L106.105886,15.0043514 Z M106.105886,13.5692027 L107.549135,13.5692027 L107.549135,12.1497162 L106.105886,12.1497162 L106.105886,13.5692027 Z M106.105886,12.1497162 L107.549135,12.1497162 L107.549135,10.6931351 L106.105886,10.6931351 L106.105886,12.1497162 Z M106.105886,3.42671622 L107.549135,3.42671622 L107.549135,2.00640541 L106.105886,2.00640541 L106.105886,3.42671622 Z M106.105886,2.00640541 L107.549135,2.00640541 L107.549135,0.549824324 L106.105886,0.549824324 L106.105886,2.00640541 Z M104.655249,15.0043514 L106.105886,15.0043514 L106.105886,13.5692027 L104.655249,13.5692027 L104.655249,15.0043514 Z M104.655249,13.5692027 L106.105886,13.5692027 L106.105886,12.1497162 L104.655249,12.1497162 L104.655249,13.5692027 Z M104.655249,9.24397297 L106.105886,9.24397297 L106.105886,7.78821622 L104.655249,7.78821622 L104.655249,9.24397297 Z M104.655249,7.78821622 L106.105886,7.78821622 L106.105886,6.33905405 L104.655249,6.33905405 L104.655249,7.78821622 Z M104.655249,6.33905405 L106.105886,6.33905405 L106.105886,4.88247297 L104.655249,4.88247297 L104.655249,6.33905405 Z M104.655249,2.00640541 L106.105886,2.00640541 L106.105886,0.549824324 L104.655249,0.549824324 L104.655249,2.00640541 Z M103.205432,15.0043514 L104.655249,15.0043514 L104.655249,13.5692027 L103.205432,13.5692027 L103.205432,15.0043514 Z M103.205432,13.5692027 L104.655249,13.5692027 L104.655249,12.1497162 L103.205432,12.1497162 L103.205432,13.5692027 Z M103.205432,10.6931351 L104.655249,10.6931351 L104.655249,9.24397297 L103.205432,9.24397297 L103.205432,10.6931351 Z M103.205432,9.24397297 L104.655249,9.24397297 L104.655249,7.78821622 L103.205432,7.78821622 L103.205432,9.24397297 Z M103.205432,7.78821622 L104.655249,7.78821622 L104.655249,6.33905405 L103.205432,6.33905405 L103.205432,7.78821622 Z M103.205432,6.33905405 L104.655249,6.33905405 L104.655249,4.88247297 L103.205432,4.88247297 L103.205432,6.33905405 Z M103.205432,4.88247297 L104.655249,4.88247297 L104.655249,3.42671622 L103.205432,3.42671622 L103.205432,4.88247297 Z M103.205432,2.00640541 L104.655249,2.00640541 L104.655249,0.549824324 L103.205432,0.549824324 L103.205432,2.00640541 Z M101.790917,15.0043514 L103.205432,15.0043514 L103.205432,13.5692027 L101.790917,13.5692027 L101.790917,15.0043514 Z M101.790917,13.5692027 L103.205432,13.5692027 L103.205432,12.1497162 L101.790917,12.1497162 L101.790917,13.5692027 Z M101.790917,10.6931351 L103.205432,10.6931351 L103.205432,9.24397297 L101.790917,9.24397297 L101.790917,10.6931351 Z M101.790917,9.24397297 L103.205432,9.24397297 L103.205432,7.78821622 L101.790917,7.78821622 L101.790917,9.24397297 Z M101.790917,7.78821622 L103.205432,7.78821622 L103.205432,6.33905405 L101.790917,6.33905405 L101.790917,7.78821622 Z M101.790917,6.33905405 L103.205432,6.33905405 L103.205432,4.88247297 L101.790917,4.88247297 L101.790917,6.33905405 Z M101.790917,4.88247297 L103.205432,4.88247297 L103.205432,3.42671622 L101.790917,3.42671622 L101.790917,4.88247297 Z M101.790917,2.00640541 L103.205432,2.00640541 L103.205432,0.549824324 L101.790917,0.549824324 L101.790917,2.00640541 Z M100.340279,15.0043514 L101.790917,15.0043514 L101.790917,13.5692027 L100.340279,13.5692027 L100.340279,15.0043514 Z M100.340279,13.5692027 L101.790917,13.5692027 L101.790917,12.1497162 L100.340279,12.1497162 L100.340279,13.5692027 Z M100.340279,2.00640541 L101.790917,2.00640541 L101.790917,0.549824324 L100.340279,0.549824324 L100.340279,2.00640541 Z M98.8970306,15.0043514 L100.340279,15.0043514 L100.340279,13.5692027 L98.8970306,13.5692027 L98.8970306,15.0043514 Z M98.8970306,13.5692027 L100.340279,13.5692027 L100.340279,12.1497162 L98.8970306,12.1497162 L98.8970306,13.5692027 Z M98.8970306,2.00640541 L100.340279,2.00640541 L100.340279,0.549824324 L98.8970306,0.549824324 L98.8970306,2.00640541 Z M97.447214,13.5692027 L98.8970306,13.5692027 L98.8970306,12.1497162 L97.447214,12.1497162 L97.447214,13.5692027 Z M97.447214,12.1497162 L98.8970306,12.1497162 L98.8970306,10.6931351 L97.447214,10.6931351 L97.447214,12.1497162 Z M97.447214,10.6931351 L98.8970306,10.6931351 L98.8970306,9.24397297 L97.447214,9.24397297 L97.447214,10.6931351 Z M97.447214,9.24397297 L98.8970306,9.24397297 L98.8970306,7.78821622 L97.447214,7.78821622 L97.447214,9.24397297 Z M97.447214,7.78821622 L98.8970306,7.78821622 L98.8970306,6.33905405 L97.447214,6.33905405 L97.447214,7.78821622 Z M97.447214,6.33905405 L98.8970306,6.33905405 L98.8970306,4.88247297 L97.447214,4.88247297 L97.447214,6.33905405 Z M97.447214,4.88247297 L98.8970306,4.88247297 L98.8970306,3.42671622 L97.447214,3.42671622 L97.447214,4.88247297 Z M97.447214,3.42671622 L98.8970306,3.42671622 L98.8970306,2.00640541 L97.447214,2.00640541 L97.447214,3.42671622 Z M97.447214,2.00640541 L98.8970306,2.00640541 L98.8970306,0.549824324 L97.447214,0.549824324 L97.447214,2.00640541 Z" id="Fill-11"></path>
                        <path d="M123.41338,15.0043514 L124.835284,15.0043514 L124.835284,13.5692027 L123.41338,13.5692027 L123.41338,15.0043514 Z M123.41338,13.5692027 L124.835284,13.5692027 L124.835284,12.1497162 L123.41338,12.1497162 L123.41338,13.5692027 Z M123.41338,12.1497162 L124.835284,12.1497162 L124.835284,10.6931351 L123.41338,10.6931351 L123.41338,12.1497162 Z M123.41338,6.33905405 L124.835284,6.33905405 L124.835284,4.88247297 L123.41338,4.88247297 L123.41338,6.33905405 Z M123.41338,4.88247297 L124.835284,4.88247297 L124.835284,3.42671622 L123.41338,3.42671622 L123.41338,4.88247297 Z M123.41338,3.42671622 L124.835284,3.42671622 L124.835284,2.00640541 L123.41338,2.00640541 L123.41338,3.42671622 Z M121.970131,15.0043514 L123.41338,15.0043514 L123.41338,13.5692027 L121.970131,13.5692027 L121.970131,15.0043514 Z M121.970131,13.5692027 L123.41338,13.5692027 L123.41338,12.1497162 L121.970131,12.1497162 L121.970131,13.5692027 Z M121.970131,12.1497162 L123.41338,12.1497162 L123.41338,10.6931351 L121.970131,10.6931351 L121.970131,12.1497162 Z M121.970131,10.6931351 L123.41338,10.6931351 L123.41338,9.24397297 L121.970131,9.24397297 L121.970131,10.6931351 Z M121.970131,9.24397297 L123.41338,9.24397297 L123.41338,7.78821622 L121.970131,7.78821622 L121.970131,9.24397297 Z M121.970131,7.78821622 L123.41338,7.78821622 L123.41338,6.33905405 L121.970131,6.33905405 L121.970131,7.78821622 Z M121.970131,6.33905405 L123.41338,6.33905405 L123.41338,4.88247297 L121.970131,4.88247297 L121.970131,6.33905405 Z M121.970131,4.88247297 L123.41338,4.88247297 L123.41338,3.42671622 L121.970131,3.42671622 L121.970131,4.88247297 Z M121.970131,3.42671622 L123.41338,3.42671622 L123.41338,2.00640541 L121.970131,2.00640541 L121.970131,3.42671622 Z M121.970131,2.00640541 L123.41338,2.00640541 L123.41338,0.549824324 L121.970131,0.549824324 L121.970131,2.00640541 Z M120.520314,15.0043514 L121.970131,15.0043514 L121.970131,13.5692027 L120.520314,13.5692027 L120.520314,15.0043514 Z M120.520314,13.5692027 L121.970131,13.5692027 L121.970131,12.1497162 L120.520314,12.1497162 L120.520314,13.5692027 Z M120.520314,10.6931351 L121.970131,10.6931351 L121.970131,9.24397297 L120.520314,9.24397297 L120.520314,10.6931351 Z M120.520314,9.24397297 L121.970131,9.24397297 L121.970131,7.78821622 L120.520314,7.78821622 L120.520314,9.24397297 Z M120.520314,7.78821622 L121.970131,7.78821622 L121.970131,6.33905405 L120.520314,6.33905405 L120.520314,7.78821622 Z M120.520314,6.33905405 L121.970131,6.33905405 L121.970131,4.88247297 L120.520314,4.88247297 L120.520314,6.33905405 Z M120.520314,4.88247297 L121.970131,4.88247297 L121.970131,3.42671622 L120.520314,3.42671622 L120.520314,4.88247297 Z M120.520314,2.00640541 L121.970131,2.00640541 L121.970131,0.549824324 L120.520314,0.549824324 L120.520314,2.00640541 Z M119.077066,15.0043514 L120.520314,15.0043514 L120.520314,13.5692027 L119.077066,13.5692027 L119.077066,15.0043514 Z M119.077066,13.5692027 L120.520314,13.5692027 L120.520314,12.1497162 L119.077066,12.1497162 L119.077066,13.5692027 Z M119.077066,10.6931351 L120.520314,10.6931351 L120.520314,9.24397297 L119.077066,9.24397297 L119.077066,10.6931351 Z M119.077066,9.24397297 L120.520314,9.24397297 L120.520314,7.78821622 L119.077066,7.78821622 L119.077066,9.24397297 Z M119.077066,6.33905405 L120.520314,6.33905405 L120.520314,4.88247297 L119.077066,4.88247297 L119.077066,6.33905405 Z M119.077066,4.88247297 L120.520314,4.88247297 L120.520314,3.42671622 L119.077066,3.42671622 L119.077066,4.88247297 Z M119.077066,2.00640541 L120.520314,2.00640541 L120.520314,0.549824324 L119.077066,0.549824324 L119.077066,2.00640541 Z M117.626428,15.0043514 L119.077066,15.0043514 L119.077066,13.5692027 L117.626428,13.5692027 L117.626428,15.0043514 Z M117.626428,13.5692027 L119.077066,13.5692027 L119.077066,12.1497162 L117.626428,12.1497162 L117.626428,13.5692027 Z M117.626428,10.6931351 L119.077066,10.6931351 L119.077066,9.24397297 L117.626428,9.24397297 L117.626428,10.6931351 Z M117.626428,9.24397297 L119.077066,9.24397297 L119.077066,7.78821622 L117.626428,7.78821622 L117.626428,9.24397297 Z M117.626428,6.33905405 L119.077066,6.33905405 L119.077066,4.88247297 L117.626428,4.88247297 L117.626428,6.33905405 Z M117.626428,4.88247297 L119.077066,4.88247297 L119.077066,3.42671622 L117.626428,3.42671622 L117.626428,4.88247297 Z M117.626428,2.00640541 L119.077066,2.00640541 L119.077066,0.549824324 L117.626428,0.549824324 L117.626428,2.00640541 Z M116.176611,15.0043514 L117.626428,15.0043514 L117.626428,13.5692027 L116.176611,13.5692027 L116.176611,15.0043514 Z M116.176611,13.5692027 L117.626428,13.5692027 L117.626428,12.1497162 L116.176611,12.1497162 L116.176611,13.5692027 Z M116.176611,10.6931351 L117.626428,10.6931351 L117.626428,9.24397297 L116.176611,9.24397297 L116.176611,10.6931351 Z M116.176611,9.24397297 L117.626428,9.24397297 L117.626428,7.78821622 L116.176611,7.78821622 L116.176611,9.24397297 Z M116.176611,6.33905405 L117.626428,6.33905405 L117.626428,4.88247297 L116.176611,4.88247297 L116.176611,6.33905405 Z M116.176611,4.88247297 L117.626428,4.88247297 L117.626428,3.42671622 L116.176611,3.42671622 L116.176611,4.88247297 Z M116.176611,2.00640541 L117.626428,2.00640541 L117.626428,0.549824324 L116.176611,0.549824324 L116.176611,2.00640541 Z M114.762096,15.0043514 L116.176611,15.0043514 L116.176611,13.5692027 L114.762096,13.5692027 L114.762096,15.0043514 Z M114.762096,13.5692027 L116.176611,13.5692027 L116.176611,12.1497162 L114.762096,12.1497162 L114.762096,13.5692027 Z M114.762096,10.6931351 L116.176611,10.6931351 L116.176611,9.24397297 L114.762096,9.24397297 L114.762096,10.6931351 Z M114.762096,9.24397297 L116.176611,9.24397297 L116.176611,7.78821622 L114.762096,7.78821622 L114.762096,9.24397297 Z M114.762096,6.33905405 L116.176611,6.33905405 L116.176611,4.88247297 L114.762096,4.88247297 L114.762096,6.33905405 Z M114.762096,4.88247297 L116.176611,4.88247297 L116.176611,3.42671622 L114.762096,3.42671622 L114.762096,4.88247297 Z M114.762096,2.00640541 L116.176611,2.00640541 L116.176611,0.549824324 L114.762096,0.549824324 L114.762096,2.00640541 Z M113.311459,15.0043514 L114.762096,15.0043514 L114.762096,13.5692027 L113.311459,13.5692027 L113.311459,15.0043514 Z M113.311459,13.5692027 L114.762096,13.5692027 L114.762096,12.1497162 L113.311459,12.1497162 L113.311459,13.5692027 Z M113.311459,2.00640541 L114.762096,2.00640541 L114.762096,0.549824324 L113.311459,0.549824324 L113.311459,2.00640541 Z M111.869031,15.0043514 L113.311459,15.0043514 L113.311459,13.5692027 L111.869031,13.5692027 L111.869031,15.0043514 Z M111.869031,13.5692027 L113.311459,13.5692027 L113.311459,12.1497162 L111.869031,12.1497162 L111.869031,13.5692027 Z M111.869031,2.00640541 L113.311459,2.00640541 L113.311459,0.549824324 L111.869031,0.549824324 L111.869031,2.00640541 Z M110.418393,13.5692027 L111.869031,13.5692027 L111.869031,12.1497162 L110.418393,12.1497162 L110.418393,13.5692027 Z M110.418393,12.1497162 L111.869031,12.1497162 L111.869031,10.6931351 L110.418393,10.6931351 L110.418393,12.1497162 Z M110.418393,10.6931351 L111.869031,10.6931351 L111.869031,9.24397297 L110.418393,9.24397297 L110.418393,10.6931351 Z M110.418393,9.24397297 L111.869031,9.24397297 L111.869031,7.78821622 L110.418393,7.78821622 L110.418393,9.24397297 Z M110.418393,7.78821622 L111.869031,7.78821622 L111.869031,6.33905405 L110.418393,6.33905405 L110.418393,7.78821622 Z M110.418393,6.33905405 L111.869031,6.33905405 L111.869031,4.88247297 L110.418393,4.88247297 L110.418393,6.33905405 Z M110.418393,4.88247297 L111.869031,4.88247297 L111.869031,3.42671622 L110.418393,3.42671622 L110.418393,4.88247297 Z M110.418393,3.42671622 L111.869031,3.42671622 L111.869031,2.00640541 L110.418393,2.00640541 L110.418393,3.42671622 Z M110.418393,2.00640541 L111.869031,2.00640541 L111.869031,0.549824324 L110.418393,0.549824324 L110.418393,2.00640541 Z" id="Fill-12"></path>
                        <path d="M136.36814,15.0043514 L137.790044,15.0043514 L137.790044,13.5692027 L136.36814,13.5692027 L136.36814,15.0043514 Z M136.36814,13.5692027 L137.790044,13.5692027 L137.790044,12.1497162 L136.36814,12.1497162 L136.36814,13.5692027 Z M136.36814,12.1497162 L137.790044,12.1497162 L137.790044,10.6931351 L136.36814,10.6931351 L136.36814,12.1497162 Z M136.36814,10.6931351 L137.790044,10.6931351 L137.790044,9.24397297 L136.36814,9.24397297 L136.36814,10.6931351 Z M136.36814,9.24397297 L137.790044,9.24397297 L137.790044,7.78821622 L136.36814,7.78821622 L136.36814,9.24397297 Z M136.36814,7.78821622 L137.790044,7.78821622 L137.790044,6.33905405 L136.36814,6.33905405 L136.36814,7.78821622 Z M136.36814,6.33905405 L137.790044,6.33905405 L137.790044,4.88247297 L136.36814,4.88247297 L136.36814,6.33905405 Z M136.36814,4.88247297 L137.790044,4.88247297 L137.790044,3.42671622 L136.36814,3.42671622 L136.36814,4.88247297 Z M134.925712,15.0043514 L136.36814,15.0043514 L136.36814,13.5692027 L134.925712,13.5692027 L134.925712,15.0043514 Z M134.925712,13.5692027 L136.36814,13.5692027 L136.36814,12.1497162 L134.925712,12.1497162 L134.925712,13.5692027 Z M134.925712,12.1497162 L136.36814,12.1497162 L136.36814,10.6931351 L134.925712,10.6931351 L134.925712,12.1497162 Z M134.925712,10.6931351 L136.36814,10.6931351 L136.36814,9.24397297 L134.925712,9.24397297 L134.925712,10.6931351 Z M134.925712,9.24397297 L136.36814,9.24397297 L136.36814,7.78821622 L134.925712,7.78821622 L134.925712,9.24397297 Z M134.925712,7.78821622 L136.36814,7.78821622 L136.36814,6.33905405 L134.925712,6.33905405 L134.925712,7.78821622 Z M134.925712,6.33905405 L136.36814,6.33905405 L136.36814,4.88247297 L134.925712,4.88247297 L134.925712,6.33905405 Z M134.925712,4.88247297 L136.36814,4.88247297 L136.36814,3.42671622 L134.925712,3.42671622 L134.925712,4.88247297 Z M134.925712,3.42671622 L136.36814,3.42671622 L136.36814,2.00640541 L134.925712,2.00640541 L134.925712,3.42671622 Z M133.475074,15.0043514 L134.925712,15.0043514 L134.925712,13.5692027 L133.475074,13.5692027 L133.475074,15.0043514 Z M133.475074,13.5692027 L134.925712,13.5692027 L134.925712,12.1497162 L133.475074,12.1497162 L133.475074,13.5692027 Z M133.475074,7.78821622 L134.925712,7.78821622 L134.925712,6.33905405 L133.475074,6.33905405 L133.475074,7.78821622 Z M133.475074,3.42671622 L134.925712,3.42671622 L134.925712,2.00640541 L133.475074,2.00640541 L133.475074,3.42671622 Z M133.475074,2.00640541 L134.925712,2.00640541 L134.925712,0.549824324 L133.475074,0.549824324 L133.475074,2.00640541 Z M132.031825,15.0043514 L133.475074,15.0043514 L133.475074,13.5692027 L132.031825,13.5692027 L132.031825,15.0043514 Z M132.031825,13.5692027 L133.475074,13.5692027 L133.475074,12.1497162 L132.031825,12.1497162 L132.031825,13.5692027 Z M132.031825,2.00640541 L133.475074,2.00640541 L133.475074,0.549824324 L132.031825,0.549824324 L132.031825,2.00640541 Z M130.582009,13.5692027 L132.031825,13.5692027 L132.031825,12.1497162 L130.582009,12.1497162 L130.582009,13.5692027 Z M130.582009,12.1497162 L132.031825,12.1497162 L132.031825,10.6931351 L130.582009,10.6931351 L130.582009,12.1497162 Z M130.582009,10.6931351 L132.031825,10.6931351 L132.031825,9.24397297 L130.582009,9.24397297 L130.582009,10.6931351 Z M130.582009,9.24397297 L132.031825,9.24397297 L132.031825,7.78821622 L130.582009,7.78821622 L130.582009,9.24397297 Z M130.582009,6.33905405 L132.031825,6.33905405 L132.031825,4.88247297 L130.582009,4.88247297 L130.582009,6.33905405 Z M130.582009,4.88247297 L132.031825,4.88247297 L132.031825,3.42671622 L130.582009,3.42671622 L130.582009,4.88247297 Z M130.582009,2.00640541 L132.031825,2.00640541 L132.031825,0.549824324 L130.582009,0.549824324 L130.582009,2.00640541 Z M129.131371,15.0043514 L130.582009,15.0043514 L130.582009,13.5692027 L129.131371,13.5692027 L129.131371,15.0043514 Z M129.131371,13.5692027 L130.582009,13.5692027 L130.582009,12.1497162 L129.131371,12.1497162 L129.131371,13.5692027 Z M129.131371,12.1497162 L130.582009,12.1497162 L130.582009,10.6931351 L129.131371,10.6931351 L129.131371,12.1497162 Z M129.131371,10.6931351 L130.582009,10.6931351 L130.582009,9.24397297 L129.131371,9.24397297 L129.131371,10.6931351 Z M129.131371,9.24397297 L130.582009,9.24397297 L130.582009,7.78821622 L129.131371,7.78821622 L129.131371,9.24397297 Z M129.131371,6.33905405 L130.582009,6.33905405 L130.582009,4.88247297 L129.131371,4.88247297 L129.131371,6.33905405 Z M129.131371,4.88247297 L130.582009,4.88247297 L130.582009,3.42671622 L129.131371,3.42671622 L129.131371,4.88247297 Z M129.131371,2.00640541 L130.582009,2.00640541 L130.582009,0.549824324 L129.131371,0.549824324 L129.131371,2.00640541 Z M127.716856,15.0043514 L129.131371,15.0043514 L129.131371,13.5692027 L127.716856,13.5692027 L127.716856,15.0043514 Z M127.716856,13.5692027 L129.131371,13.5692027 L129.131371,12.1497162 L127.716856,12.1497162 L127.716856,13.5692027 Z M127.716856,12.1497162 L129.131371,12.1497162 L129.131371,10.6931351 L127.716856,10.6931351 L127.716856,12.1497162 Z M127.716856,10.6931351 L129.131371,10.6931351 L129.131371,9.24397297 L127.716856,9.24397297 L127.716856,10.6931351 Z M127.716856,9.24397297 L129.131371,9.24397297 L129.131371,7.78821622 L127.716856,7.78821622 L127.716856,9.24397297 Z M127.716856,6.33905405 L129.131371,6.33905405 L129.131371,4.88247297 L127.716856,4.88247297 L127.716856,6.33905405 Z M127.716856,4.88247297 L129.131371,4.88247297 L129.131371,3.42671622 L127.716856,3.42671622 L127.716856,4.88247297 Z M127.716856,2.00640541 L129.131371,2.00640541 L129.131371,0.549824324 L127.716856,0.549824324 L127.716856,2.00640541 Z M126.267039,15.0043514 L127.716856,15.0043514 L127.716856,13.5692027 L126.267039,13.5692027 L126.267039,15.0043514 Z M126.267039,13.5692027 L127.716856,13.5692027 L127.716856,12.1497162 L126.267039,12.1497162 L126.267039,13.5692027 Z M126.267039,2.00640541 L127.716856,2.00640541 L127.716856,0.549824324 L126.267039,0.549824324 L126.267039,2.00640541 Z M124.82379,15.0043514 L126.267039,15.0043514 L126.267039,13.5692027 L124.82379,13.5692027 L124.82379,15.0043514 Z M124.82379,13.5692027 L126.267039,13.5692027 L126.267039,12.1497162 L124.82379,12.1497162 L124.82379,13.5692027 Z M124.82379,2.00640541 L126.267039,2.00640541 L126.267039,0.549824324 L124.82379,0.549824324 L124.82379,2.00640541 Z M123.373153,13.5692027 L124.82379,13.5692027 L124.82379,12.1497162 L123.373153,12.1497162 L123.373153,13.5692027 Z M123.373153,12.1497162 L124.82379,12.1497162 L124.82379,10.6931351 L123.373153,10.6931351 L123.373153,12.1497162 Z M123.373153,10.6931351 L124.82379,10.6931351 L124.82379,9.24397297 L123.373153,9.24397297 L123.373153,10.6931351 Z M123.373153,9.24397297 L124.82379,9.24397297 L124.82379,7.78821622 L123.373153,7.78821622 L123.373153,9.24397297 Z M123.373153,7.78821622 L124.82379,7.78821622 L124.82379,6.33905405 L123.373153,6.33905405 L123.373153,7.78821622 Z M123.373153,6.33905405 L124.82379,6.33905405 L124.82379,4.88247297 L123.373153,4.88247297 L123.373153,6.33905405 Z M123.373153,4.88247297 L124.82379,4.88247297 L124.82379,3.42671622 L123.373153,3.42671622 L123.373153,4.88247297 Z M123.373153,3.42671622 L124.82379,3.42671622 L124.82379,2.00640541 L123.373153,2.00640541 L123.373153,3.42671622 Z M123.373153,2.00640541 L124.82379,2.00640541 L124.82379,0.549824324 L123.373153,0.549824324 L123.373153,2.00640541 Z" id="Fill-13"></path>
                        <path d="M41.9437031,61 L46.5246638,61 L46.5246638,56.3780135 L41.9437031,56.3780135 L41.9437031,61 Z M41.9437031,56.3780135 L46.5246638,56.3780135 L46.5246638,51.8021892 L41.9437031,51.8021892 L41.9437031,56.3780135 Z M41.9437031,51.8021892 L46.5246638,51.8021892 L46.5246638,47.1101351 L41.9437031,47.1101351 L41.9437031,51.8021892 Z M41.9437031,47.1101351 L46.5246638,47.1101351 L46.5246638,42.4411622 L41.9437031,42.4411622 L41.9437031,47.1101351 Z M41.9437031,42.4411622 L46.5246638,42.4411622 L46.5246638,37.7482838 L41.9437031,37.7482838 L41.9437031,42.4411622 Z M41.9437031,37.7482838 L46.5246638,37.7482838 L46.5246638,33.0793108 L41.9437031,33.0793108 L41.9437031,37.7482838 Z M41.9437031,33.0793108 L46.5246638,33.0793108 L46.5246638,28.3872568 L41.9437031,28.3872568 L41.9437031,33.0793108 Z M41.9437031,28.3872568 L46.5246638,28.3872568 L46.5246638,23.6952027 L41.9437031,23.6952027 L41.9437031,28.3872568 Z M41.9437031,23.6952027 L46.5246638,23.6952027 L46.5246638,19.1193784 L41.9437031,19.1193784 L41.9437031,23.6952027 Z M37.2937817,61 L41.9437031,61 L41.9437031,56.3780135 L37.2937817,56.3780135 L37.2937817,61 Z M37.2937817,56.3780135 L41.9437031,56.3780135 L41.9437031,51.8021892 L37.2937817,51.8021892 L37.2937817,56.3780135 Z M37.2937817,51.8021892 L41.9437031,51.8021892 L41.9437031,47.1101351 L37.2937817,47.1101351 L37.2937817,51.8021892 Z M37.2937817,47.1101351 L41.9437031,47.1101351 L41.9437031,42.4411622 L37.2937817,42.4411622 L37.2937817,47.1101351 Z M37.2937817,42.4411622 L41.9437031,42.4411622 L41.9437031,37.7482838 L37.2937817,37.7482838 L37.2937817,42.4411622 Z M37.2937817,37.7482838 L41.9437031,37.7482838 L41.9437031,33.0793108 L37.2937817,33.0793108 L37.2937817,37.7482838 Z M37.2937817,33.0793108 L41.9437031,33.0793108 L41.9437031,28.3872568 L37.2937817,28.3872568 L37.2937817,33.0793108 Z M37.2937817,28.3872568 L41.9437031,28.3872568 L41.9437031,23.6952027 L37.2937817,23.6952027 L37.2937817,28.3872568 Z M37.2937817,23.6952027 L41.9437031,23.6952027 L41.9437031,19.1193784 L37.2937817,19.1193784 L37.2937817,23.6952027 Z M37.2937817,19.1193784 L41.9437031,19.1193784 L41.9437031,14.4265 L37.2937817,14.4265 L37.2937817,19.1193784 Z M32.6208734,61 L37.2929607,61 L37.2929607,56.3780135 L32.6208734,56.3780135 L32.6208734,61 Z M32.6208734,56.3780135 L37.2929607,56.3780135 L37.2929607,51.8021892 L32.6208734,51.8021892 L32.6208734,56.3780135 Z M32.6208734,19.1193784 L37.2929607,19.1193784 L37.2929607,14.4265 L32.6208734,14.4265 L32.6208734,19.1193784 Z M27.970952,61 L32.6208734,61 L32.6208734,56.3780135 L27.970952,56.3780135 L27.970952,61 Z M27.970952,56.3780135 L32.6208734,56.3780135 L32.6208734,51.8021892 L27.970952,51.8021892 L27.970952,56.3780135 Z M27.970952,19.1193784 L32.6208734,19.1193784 L32.6208734,14.4265 L27.970952,14.4265 L27.970952,19.1193784 Z M23.2972227,56.3780135 L27.970952,56.3780135 L27.970952,51.8021892 L23.2972227,51.8021892 L23.2972227,56.3780135 Z M23.2972227,51.8021892 L27.970952,51.8021892 L27.970952,47.1101351 L23.2972227,47.1101351 L23.2972227,51.8021892 Z M23.2972227,47.1101351 L27.970952,47.1101351 L27.970952,42.4411622 L23.2972227,42.4411622 L23.2972227,47.1101351 Z M23.2972227,33.0793108 L27.970952,33.0793108 L27.970952,28.3872568 L23.2972227,28.3872568 L23.2972227,33.0793108 Z M23.2972227,28.3872568 L27.970952,28.3872568 L27.970952,23.6952027 L23.2972227,23.6952027 L23.2972227,28.3872568 Z M23.2972227,23.6952027 L27.970952,23.6952027 L27.970952,19.1193784 L23.2972227,19.1193784 L23.2972227,23.6952027 Z M23.2972227,19.1193784 L27.970952,19.1193784 L27.970952,14.4265 L23.2972227,14.4265 L23.2972227,19.1193784 Z M18.6251354,61 L23.2972227,61 L23.2972227,56.3780135 L18.6251354,56.3780135 L18.6251354,61 Z M18.6251354,56.3780135 L23.2972227,56.3780135 L23.2972227,51.8021892 L18.6251354,51.8021892 L18.6251354,56.3780135 Z M18.6251354,51.8021892 L23.2972227,51.8021892 L23.2972227,47.1101351 L18.6251354,47.1101351 L18.6251354,51.8021892 Z M18.6251354,47.1101351 L23.2972227,47.1101351 L23.2972227,42.4411622 L18.6251354,42.4411622 L18.6251354,47.1101351 Z M18.6251354,42.4411622 L23.2972227,42.4411622 L23.2972227,37.7482838 L18.6251354,37.7482838 L18.6251354,42.4411622 Z M18.6251354,28.3872568 L23.2972227,28.3872568 L23.2972227,23.6952027 L18.6251354,23.6952027 L18.6251354,28.3872568 Z M18.6251354,23.6952027 L23.2972227,23.6952027 L23.2972227,19.1193784 L18.6251354,19.1193784 L18.6251354,23.6952027 Z M14.0679825,61 L18.6251354,61 L18.6251354,56.3780135 L14.0679825,56.3780135 L14.0679825,61 Z M14.0679825,56.3780135 L18.6251354,56.3780135 L18.6251354,51.8021892 L14.0679825,51.8021892 L14.0679825,56.3780135 Z M14.0679825,51.8021892 L18.6251354,51.8021892 L18.6251354,47.1101351 L14.0679825,47.1101351 L14.0679825,51.8021892 Z M14.0679825,47.1101351 L18.6251354,47.1101351 L18.6251354,42.4411622 L14.0679825,42.4411622 L14.0679825,47.1101351 Z M14.0679825,42.4411622 L18.6251354,42.4411622 L18.6251354,37.7482838 L14.0679825,37.7482838 L14.0679825,42.4411622 Z M14.0679825,37.7482838 L18.6251354,37.7482838 L18.6251354,33.0793108 L14.0679825,33.0793108 L14.0679825,37.7482838 Z M14.0679825,23.6952027 L18.6251354,23.6952027 L18.6251354,19.1193784 L14.0679825,19.1193784 L14.0679825,23.6952027 Z M14.0679825,19.1193784 L18.6251354,19.1193784 L18.6251354,14.4265 L14.0679825,14.4265 L14.0679825,19.1193784 Z M9.39343231,61 L14.0671616,61 L14.0671616,56.3780135 L9.39343231,56.3780135 L9.39343231,61 Z M9.39343231,56.3780135 L14.0671616,56.3780135 L14.0671616,51.8021892 L9.39343231,51.8021892 L9.39343231,56.3780135 Z M9.39343231,19.1193784 L14.0671616,19.1193784 L14.0671616,14.4265 L9.39343231,14.4265 L9.39343231,19.1193784 Z M4.74351092,61 L9.39343231,61 L9.39343231,56.3780135 L4.74351092,56.3780135 L4.74351092,61 Z M4.74351092,56.3780135 L9.39343231,56.3780135 L9.39343231,51.8021892 L4.74351092,51.8021892 L4.74351092,56.3780135 Z M4.74351092,19.1193784 L9.39343231,19.1193784 L9.39343231,14.4265 L4.74351092,14.4265 L4.74351092,19.1193784 Z M0.0714235808,56.3780135 L4.74351092,56.3780135 L4.74351092,51.8021892 L0.0714235808,51.8021892 L0.0714235808,56.3780135 Z M0.0714235808,51.8021892 L4.74351092,51.8021892 L4.74351092,47.1101351 L0.0714235808,47.1101351 L0.0714235808,51.8021892 Z M0.0714235808,47.1101351 L4.74351092,47.1101351 L4.74351092,42.4411622 L0.0714235808,42.4411622 L0.0714235808,47.1101351 Z M0.0714235808,42.4411622 L4.74351092,42.4411622 L4.74351092,37.7482838 L0.0714235808,37.7482838 L0.0714235808,42.4411622 Z M0.0714235808,37.7482838 L4.74351092,37.7482838 L4.74351092,33.0793108 L0.0714235808,33.0793108 L0.0714235808,37.7482838 Z M0.0714235808,33.0793108 L4.74351092,33.0793108 L4.74351092,28.3872568 L0.0714235808,28.3872568 L0.0714235808,33.0793108 Z M0.0714235808,28.3872568 L4.74351092,28.3872568 L4.74351092,23.6952027 L0.0714235808,23.6952027 L0.0714235808,28.3872568 Z M0.0714235808,23.6952027 L4.74351092,23.6952027 L4.74351092,19.1193784 L0.0714235808,19.1193784 L0.0714235808,23.6952027 Z M0.0714235808,19.1193784 L4.74351092,19.1193784 L4.74351092,14.4265 L0.0714235808,14.4265 L0.0714235808,19.1193784 Z" id="Fill-14"></path>
                        <path d="M75.1540262,59.0875676 L78.7859563,59.0875676 L78.7859563,55.4217973 L75.1540262,55.4217973 L75.1540262,59.0875676 Z M75.1540262,55.4217973 L78.7859563,55.4217973 L78.7859563,51.7922973 L75.1540262,51.7922973 L75.1540262,55.4217973 Z M75.1540262,51.7922973 L78.7859563,51.7922973 L78.7859563,48.0712973 L75.1540262,48.0712973 L75.1540262,51.7922973 Z M75.1540262,36.9437432 L78.7859563,36.9437432 L78.7859563,33.2219189 L75.1540262,33.2219189 L75.1540262,36.9437432 Z M75.1540262,33.2219189 L78.7859563,33.2219189 L78.7859563,29.5009189 L75.1540262,29.5009189 L75.1540262,33.2219189 Z M75.1540262,29.5009189 L78.7859563,29.5009189 L78.7859563,25.8714189 L75.1540262,25.8714189 L75.1540262,29.5009189 Z M71.4662707,59.0875676 L75.1540262,59.0875676 L75.1540262,55.4217973 L71.4662707,55.4217973 L71.4662707,59.0875676 Z M71.4662707,55.4217973 L75.1540262,55.4217973 L75.1540262,51.7922973 L71.4662707,51.7922973 L71.4662707,55.4217973 Z M71.4662707,51.7922973 L75.1540262,51.7922973 L75.1540262,48.0712973 L71.4662707,48.0712973 L71.4662707,51.7922973 Z M71.4662707,48.0712973 L75.1540262,48.0712973 L75.1540262,44.3684324 L71.4662707,44.3684324 L71.4662707,48.0712973 Z M71.4662707,44.3684324 L75.1540262,44.3684324 L75.1540262,40.6466081 L71.4662707,40.6466081 L71.4662707,44.3684324 Z M71.4662707,40.6466081 L75.1540262,40.6466081 L75.1540262,36.9437432 L71.4662707,36.9437432 L71.4662707,40.6466081 Z M71.4662707,36.9437432 L75.1540262,36.9437432 L75.1540262,33.2219189 L71.4662707,33.2219189 L71.4662707,36.9437432 Z M71.4662707,33.2219189 L75.1540262,33.2219189 L75.1540262,29.5009189 L71.4662707,29.5009189 L71.4662707,33.2219189 Z M71.4662707,29.5009189 L75.1540262,29.5009189 L75.1540262,25.8714189 L71.4662707,25.8714189 L71.4662707,29.5009189 Z M71.4662707,25.8714189 L75.1540262,25.8714189 L75.1540262,22.1504189 L71.4662707,22.1504189 L71.4662707,25.8714189 Z M67.7588122,59.0875676 L71.4662707,59.0875676 L71.4662707,55.4217973 L67.7588122,55.4217973 L67.7588122,59.0875676 Z M67.7588122,55.4217973 L71.4662707,55.4217973 L71.4662707,51.7922973 L67.7588122,51.7922973 L67.7588122,55.4217973 Z M67.7588122,48.0712973 L71.4662707,48.0712973 L71.4662707,44.3684324 L67.7588122,44.3684324 L67.7588122,48.0712973 Z M67.7588122,44.3684324 L71.4662707,44.3684324 L71.4662707,40.6466081 L67.7588122,40.6466081 L67.7588122,44.3684324 Z M67.7588122,40.6466081 L71.4662707,40.6466081 L71.4662707,36.9437432 L67.7588122,36.9437432 L67.7588122,40.6466081 Z M67.7588122,36.9437432 L71.4662707,36.9437432 L71.4662707,33.2219189 L67.7588122,33.2219189 L67.7588122,36.9437432 Z M67.7588122,33.2219189 L71.4662707,33.2219189 L71.4662707,29.5009189 L67.7588122,29.5009189 L67.7588122,33.2219189 Z M67.7588122,25.8714189 L71.4662707,25.8714189 L71.4662707,22.1504189 L67.7588122,22.1504189 L67.7588122,25.8714189 Z M64.0710568,59.0875676 L67.7588122,59.0875676 L67.7588122,55.4217973 L64.0710568,55.4217973 L64.0710568,59.0875676 Z M64.0710568,55.4217973 L67.7588122,55.4217973 L67.7588122,51.7922973 L64.0710568,51.7922973 L64.0710568,55.4217973 Z M64.0710568,48.0712973 L67.7588122,48.0712973 L67.7588122,44.3684324 L64.0710568,44.3684324 L64.0710568,48.0712973 Z M64.0710568,44.3684324 L67.7588122,44.3684324 L67.7588122,40.6466081 L64.0710568,40.6466081 L64.0710568,44.3684324 Z M64.0710568,36.9437432 L67.7588122,36.9437432 L67.7588122,33.2219189 L64.0710568,33.2219189 L64.0710568,36.9437432 Z M64.0710568,33.2219189 L67.7588122,33.2219189 L67.7588122,29.5009189 L64.0710568,29.5009189 L64.0710568,33.2219189 Z M64.0710568,25.8714189 L67.7588122,25.8714189 L67.7588122,22.1504189 L64.0710568,22.1504189 L64.0710568,25.8714189 Z M60.3652402,59.0875676 L64.0710568,59.0875676 L64.0710568,55.4217973 L60.3652402,55.4217973 L60.3652402,59.0875676 Z M60.3652402,55.4217973 L64.0710568,55.4217973 L64.0710568,51.7922973 L60.3652402,51.7922973 L60.3652402,55.4217973 Z M60.3652402,48.0712973 L64.0710568,48.0712973 L64.0710568,44.3684324 L60.3652402,44.3684324 L60.3652402,48.0712973 Z M60.3652402,44.3684324 L64.0710568,44.3684324 L64.0710568,40.6466081 L60.3652402,40.6466081 L60.3652402,44.3684324 Z M60.3652402,36.9437432 L64.0710568,36.9437432 L64.0710568,33.2219189 L60.3652402,33.2219189 L60.3652402,36.9437432 Z M60.3652402,33.2219189 L64.0710568,33.2219189 L64.0710568,29.5009189 L60.3652402,29.5009189 L60.3652402,33.2219189 Z M60.3652402,25.8714189 L64.0710568,25.8714189 L64.0710568,22.1504189 L60.3652402,22.1504189 L60.3652402,25.8714189 Z M56.6586026,59.0875676 L60.3660611,59.0875676 L60.3660611,55.4217973 L56.6586026,55.4217973 L56.6586026,59.0875676 Z M56.6586026,55.4217973 L60.3660611,55.4217973 L60.3660611,51.7922973 L56.6586026,51.7922973 L56.6586026,55.4217973 Z M56.6586026,48.0712973 L60.3660611,48.0712973 L60.3660611,44.3684324 L56.6586026,44.3684324 L56.6586026,48.0712973 Z M56.6586026,44.3684324 L60.3660611,44.3684324 L60.3660611,40.6466081 L56.6586026,40.6466081 L56.6586026,44.3684324 Z M56.6586026,36.9437432 L60.3660611,36.9437432 L60.3660611,33.2219189 L56.6586026,33.2219189 L56.6586026,36.9437432 Z M56.6586026,33.2219189 L60.3660611,33.2219189 L60.3660611,29.5009189 L56.6586026,29.5009189 L56.6586026,33.2219189 Z M56.6586026,25.8714189 L60.3660611,25.8714189 L60.3660611,22.1504189 L56.6586026,22.1504189 L56.6586026,25.8714189 Z M53.0439127,59.0875676 L56.6577817,59.0875676 L56.6577817,55.4217973 L53.0439127,55.4217973 L53.0439127,59.0875676 Z M53.0439127,55.4217973 L56.6577817,55.4217973 L56.6577817,51.7922973 L53.0439127,51.7922973 L53.0439127,55.4217973 Z M53.0439127,48.0712973 L56.6577817,48.0712973 L56.6577817,44.3684324 L53.0439127,44.3684324 L53.0439127,48.0712973 Z M53.0439127,44.3684324 L56.6577817,44.3684324 L56.6577817,40.6466081 L53.0439127,40.6466081 L53.0439127,44.3684324 Z M53.0439127,36.9437432 L56.6577817,36.9437432 L56.6577817,33.2219189 L53.0439127,33.2219189 L53.0439127,36.9437432 Z M53.0439127,33.2219189 L56.6577817,33.2219189 L56.6577817,29.5009189 L53.0439127,29.5009189 L53.0439127,33.2219189 Z M53.0439127,25.8714189 L56.6577817,25.8714189 L56.6577817,22.1504189 L53.0439127,22.1504189 L53.0439127,25.8714189 Z M49.338917,59.0875676 L53.0447336,59.0875676 L53.0447336,55.4217973 L49.338917,55.4217973 L49.338917,59.0875676 Z M49.338917,55.4217973 L53.0447336,55.4217973 L53.0447336,51.7922973 L49.338917,51.7922973 L49.338917,55.4217973 Z M49.338917,25.8714189 L53.0447336,25.8714189 L53.0447336,22.1504189 L49.338917,22.1504189 L49.338917,25.8714189 Z M45.6503406,59.0875676 L49.3380961,59.0875676 L49.3380961,55.4217973 L45.6503406,55.4217973 L45.6503406,59.0875676 Z M45.6503406,55.4217973 L49.3380961,55.4217973 L49.3380961,51.7922973 L45.6503406,51.7922973 L45.6503406,55.4217973 Z M45.6503406,25.8714189 L49.3380961,25.8714189 L49.3380961,22.1504189 L45.6503406,22.1504189 L45.6503406,25.8714189 Z M41.9437031,55.4217973 L45.6511616,55.4217973 L45.6511616,51.7922973 L41.9437031,51.7922973 L41.9437031,55.4217973 Z M41.9437031,51.7922973 L45.6511616,51.7922973 L45.6511616,48.0712973 L41.9437031,48.0712973 L41.9437031,51.7922973 Z M41.9437031,48.0712973 L45.6511616,48.0712973 L45.6511616,44.3684324 L41.9437031,44.3684324 L41.9437031,48.0712973 Z M41.9437031,44.3684324 L45.6511616,44.3684324 L45.6511616,40.6466081 L41.9437031,40.6466081 L41.9437031,44.3684324 Z M41.9437031,40.6466081 L45.6511616,40.6466081 L45.6511616,36.9437432 L41.9437031,36.9437432 L41.9437031,40.6466081 Z M41.9437031,36.9437432 L45.6511616,36.9437432 L45.6511616,33.2219189 L41.9437031,33.2219189 L41.9437031,36.9437432 Z M41.9437031,33.2219189 L45.6511616,33.2219189 L45.6511616,29.5009189 L41.9437031,29.5009189 L41.9437031,33.2219189 Z M41.9437031,29.5009189 L45.6511616,29.5009189 L45.6511616,25.8714189 L41.9437031,25.8714189 L41.9437031,29.5009189 Z M41.9437031,25.8714189 L45.6511616,25.8714189 L45.6511616,22.1504189 L41.9437031,22.1504189 L41.9437031,25.8714189 Z" id="Fill-15"></path>
                        <path d="M108.278969,59.0875676 L111.911721,59.0875676 L111.911721,55.4217973 L108.278969,55.4217973 L108.278969,59.0875676 Z M108.278969,55.4217973 L111.911721,55.4217973 L111.911721,51.7922973 L108.278969,51.7922973 L108.278969,55.4217973 Z M108.278969,51.7922973 L111.911721,51.7922973 L111.911721,48.0712973 L108.278969,48.0712973 L108.278969,51.7922973 Z M108.278969,48.0712973 L111.911721,48.0712973 L111.911721,44.3684324 L108.278969,44.3684324 L108.278969,48.0712973 Z M108.278969,44.3684324 L111.911721,44.3684324 L111.911721,40.6466081 L108.278969,40.6466081 L108.278969,44.3684324 Z M108.278969,40.6466081 L111.911721,40.6466081 L111.911721,36.9437432 L108.278969,36.9437432 L108.278969,40.6466081 Z M108.278969,36.9437432 L111.911721,36.9437432 L111.911721,33.2219189 L108.278969,33.2219189 L108.278969,36.9437432 Z M108.278969,33.2219189 L111.911721,33.2219189 L111.911721,29.5009189 L108.278969,29.5009189 L108.278969,33.2219189 Z M104.590393,59.0875676 L108.278969,59.0875676 L108.278969,55.4217973 L104.590393,55.4217973 L104.590393,59.0875676 Z M104.590393,55.4217973 L108.278969,55.4217973 L108.278969,51.7922973 L104.590393,51.7922973 L104.590393,55.4217973 Z M104.590393,51.7922973 L108.278969,51.7922973 L108.278969,48.0712973 L104.590393,48.0712973 L104.590393,51.7922973 Z M104.590393,48.0712973 L108.278969,48.0712973 L108.278969,44.3684324 L104.590393,44.3684324 L104.590393,48.0712973 Z M104.590393,44.3684324 L108.278969,44.3684324 L108.278969,40.6466081 L104.590393,40.6466081 L104.590393,44.3684324 Z M104.590393,40.6466081 L108.278969,40.6466081 L108.278969,36.9437432 L104.590393,36.9437432 L104.590393,40.6466081 Z M104.590393,36.9437432 L108.278969,36.9437432 L108.278969,33.2219189 L104.590393,33.2219189 L104.590393,36.9437432 Z M104.590393,33.2219189 L108.278969,33.2219189 L108.278969,29.5009189 L104.590393,29.5009189 L104.590393,33.2219189 Z M104.590393,29.5009189 L108.278969,29.5009189 L108.278969,25.8714189 L104.590393,25.8714189 L104.590393,29.5009189 Z M100.885397,59.0875676 L104.590393,59.0875676 L104.590393,55.4217973 L100.885397,55.4217973 L100.885397,59.0875676 Z M100.885397,55.4217973 L104.590393,55.4217973 L104.590393,51.7922973 L100.885397,51.7922973 L100.885397,55.4217973 Z M100.885397,40.6466081 L104.590393,40.6466081 L104.590393,36.9437432 L100.885397,36.9437432 L100.885397,40.6466081 Z M100.885397,29.5009189 L104.590393,29.5009189 L104.590393,25.8714189 L100.885397,25.8714189 L100.885397,29.5009189 Z M100.885397,25.8714189 L104.590393,25.8714189 L104.590393,22.1504189 L100.885397,22.1504189 L100.885397,25.8714189 Z M97.1976419,59.0875676 L100.885397,59.0875676 L100.885397,55.4217973 L97.1976419,55.4217973 L97.1976419,59.0875676 Z M97.1976419,55.4217973 L100.885397,55.4217973 L100.885397,51.7922973 L97.1976419,51.7922973 L97.1976419,55.4217973 Z M97.1976419,25.8714189 L100.885397,25.8714189 L100.885397,22.1504189 L97.1976419,22.1504189 L97.1976419,25.8714189 Z M93.4901834,55.4217973 L97.1976419,55.4217973 L97.1976419,51.7922973 L93.4901834,51.7922973 L93.4901834,55.4217973 Z M93.4901834,51.7922973 L97.1976419,51.7922973 L97.1976419,48.0712973 L93.4901834,48.0712973 L93.4901834,51.7922973 Z M93.4901834,48.0712973 L97.1976419,48.0712973 L97.1976419,44.3684324 L93.4901834,44.3684324 L93.4901834,48.0712973 Z M93.4901834,44.3684324 L97.1976419,44.3684324 L97.1976419,40.6466081 L93.4901834,40.6466081 L93.4901834,44.3684324 Z M93.4901834,36.9437432 L97.1976419,36.9437432 L97.1976419,33.2219189 L93.4901834,33.2219189 L93.4901834,36.9437432 Z M93.4901834,33.2219189 L97.1976419,33.2219189 L97.1976419,29.5009189 L93.4901834,29.5009189 L93.4901834,33.2219189 Z M93.4901834,25.8714189 L97.1976419,25.8714189 L97.1976419,22.1504189 L93.4901834,22.1504189 L93.4901834,25.8714189 Z M89.7843668,59.0875676 L93.4901834,59.0875676 L93.4901834,55.4217973 L89.7843668,55.4217973 L89.7843668,59.0875676 Z M89.7843668,55.4217973 L93.4901834,55.4217973 L93.4901834,51.7922973 L89.7843668,51.7922973 L89.7843668,55.4217973 Z M89.7843668,51.7922973 L93.4901834,51.7922973 L93.4901834,48.0712973 L89.7843668,48.0712973 L89.7843668,51.7922973 Z M89.7843668,48.0712973 L93.4901834,48.0712973 L93.4901834,44.3684324 L89.7843668,44.3684324 L89.7843668,48.0712973 Z M89.7843668,44.3684324 L93.4901834,44.3684324 L93.4901834,40.6466081 L89.7843668,40.6466081 L89.7843668,44.3684324 Z M89.7843668,36.9437432 L93.4901834,36.9437432 L93.4901834,33.2219189 L89.7843668,33.2219189 L89.7843668,36.9437432 Z M89.7843668,33.2219189 L93.4901834,33.2219189 L93.4901834,29.5009189 L89.7843668,29.5009189 L89.7843668,33.2219189 Z M89.7843668,25.8714189 L93.4901834,25.8714189 L93.4901834,22.1504189 L89.7843668,22.1504189 L89.7843668,25.8714189 Z M86.1704978,59.0875676 L89.7843668,59.0875676 L89.7843668,55.4217973 L86.1704978,55.4217973 L86.1704978,59.0875676 Z M86.1704978,55.4217973 L89.7843668,55.4217973 L89.7843668,51.7922973 L86.1704978,51.7922973 L86.1704978,55.4217973 Z M86.1704978,51.7922973 L89.7843668,51.7922973 L89.7843668,48.0712973 L86.1704978,48.0712973 L86.1704978,51.7922973 Z M86.1704978,48.0712973 L89.7843668,48.0712973 L89.7843668,44.3684324 L86.1704978,44.3684324 L86.1704978,48.0712973 Z M86.1704978,44.3684324 L89.7843668,44.3684324 L89.7843668,40.6466081 L86.1704978,40.6466081 L86.1704978,44.3684324 Z M86.1704978,36.9437432 L89.7843668,36.9437432 L89.7843668,33.2219189 L86.1704978,33.2219189 L86.1704978,36.9437432 Z M86.1704978,33.2219189 L89.7843668,33.2219189 L89.7843668,29.5009189 L86.1704978,29.5009189 L86.1704978,33.2219189 Z M86.1704978,25.8714189 L89.7843668,25.8714189 L89.7843668,22.1504189 L86.1704978,22.1504189 L86.1704978,25.8714189 Z M82.4630393,59.0875676 L86.1704978,59.0875676 L86.1704978,55.4217973 L82.4630393,55.4217973 L82.4630393,59.0875676 Z M82.4630393,55.4217973 L86.1704978,55.4217973 L86.1704978,51.7922973 L82.4630393,51.7922973 L82.4630393,55.4217973 Z M82.4630393,25.8714189 L86.1704978,25.8714189 L86.1704978,22.1504189 L82.4630393,22.1504189 L82.4630393,25.8714189 Z M78.7752838,59.0875676 L82.4630393,59.0875676 L82.4630393,55.4217973 L78.7752838,55.4217973 L78.7752838,59.0875676 Z M78.7752838,55.4217973 L82.4630393,55.4217973 L82.4630393,51.7922973 L78.7752838,51.7922973 L78.7752838,55.4217973 Z M78.7752838,25.8714189 L82.4630393,25.8714189 L82.4630393,22.1504189 L78.7752838,22.1504189 L78.7752838,25.8714189 Z M75.0694672,55.4217973 L78.7752838,55.4217973 L78.7752838,51.7922973 L75.0694672,51.7922973 L75.0694672,55.4217973 Z M75.0694672,51.7922973 L78.7752838,51.7922973 L78.7752838,48.0712973 L75.0694672,48.0712973 L75.0694672,51.7922973 Z M75.0694672,48.0712973 L78.7752838,48.0712973 L78.7752838,44.3684324 L75.0694672,44.3684324 L75.0694672,48.0712973 Z M75.0694672,44.3684324 L78.7752838,44.3684324 L78.7752838,40.6466081 L75.0694672,40.6466081 L75.0694672,44.3684324 Z M75.0694672,40.6466081 L78.7752838,40.6466081 L78.7752838,36.9437432 L75.0694672,36.9437432 L75.0694672,40.6466081 Z M75.0694672,36.9437432 L78.7752838,36.9437432 L78.7752838,33.2219189 L75.0694672,33.2219189 L75.0694672,36.9437432 Z M75.0694672,33.2219189 L78.7752838,33.2219189 L78.7752838,29.5009189 L75.0694672,29.5009189 L75.0694672,33.2219189 Z M75.0694672,29.5009189 L78.7752838,29.5009189 L78.7752838,25.8714189 L75.0694672,25.8714189 L75.0694672,29.5009189 Z M75.0694672,25.8714189 L78.7752838,25.8714189 L78.7752838,22.1504189 L75.0694672,22.1504189 L75.0694672,25.8714189 Z" id="Fill-16"></path>
                        <path d="M141.404734,51.7922973 L145.037485,51.7922973 L145.037485,48.0712973 L141.404734,48.0712973 L141.404734,51.7922973 Z M141.404734,48.0712973 L145.037485,48.0712973 L145.037485,44.3684324 L141.404734,44.3684324 L141.404734,48.0712973 Z M141.404734,44.3684324 L145.037485,44.3684324 L145.037485,40.6466081 L141.404734,40.6466081 L141.404734,44.3684324 Z M141.404734,40.6466081 L145.037485,40.6466081 L145.037485,36.9437432 L141.404734,36.9437432 L141.404734,40.6466081 Z M141.404734,36.9437432 L145.037485,36.9437432 L145.037485,33.2219189 L141.404734,33.2219189 L141.404734,36.9437432 Z M137.716978,55.4217973 L141.404734,55.4217973 L141.404734,51.7922973 L137.716978,51.7922973 L137.716978,55.4217973 Z M137.716978,51.7922973 L141.404734,51.7922973 L141.404734,48.0712973 L137.716978,48.0712973 L137.716978,51.7922973 Z M137.716978,48.0712973 L141.404734,48.0712973 L141.404734,44.3684324 L137.716978,44.3684324 L137.716978,48.0712973 Z M137.716978,44.3684324 L141.404734,44.3684324 L141.404734,40.6466081 L137.716978,40.6466081 L137.716978,44.3684324 Z M137.716978,40.6466081 L141.404734,40.6466081 L141.404734,36.9437432 L137.716978,36.9437432 L137.716978,40.6466081 Z M137.716978,36.9437432 L141.404734,36.9437432 L141.404734,33.2219189 L137.716978,33.2219189 L137.716978,36.9437432 Z M137.716978,33.2219189 L141.404734,33.2219189 L141.404734,29.5009189 L137.716978,29.5009189 L137.716978,33.2219189 Z M134.010341,59.0875676 L137.716978,59.0875676 L137.716978,55.4217973 L134.010341,55.4217973 L134.010341,59.0875676 Z M134.010341,55.4217973 L137.716978,55.4217973 L137.716978,51.7922973 L134.010341,51.7922973 L134.010341,55.4217973 Z M134.010341,51.7922973 L137.716978,51.7922973 L137.716978,48.0712973 L134.010341,48.0712973 L134.010341,51.7922973 Z M134.010341,48.0712973 L137.716978,48.0712973 L137.716978,44.3684324 L134.010341,44.3684324 L134.010341,48.0712973 Z M134.010341,33.2219189 L137.716978,33.2219189 L137.716978,29.5009189 L134.010341,29.5009189 L134.010341,33.2219189 Z M134.010341,29.5009189 L137.716978,29.5009189 L137.716978,25.8714189 L134.010341,25.8714189 L134.010341,29.5009189 Z M130.322585,59.0875676 L134.010341,59.0875676 L134.010341,55.4217973 L130.322585,55.4217973 L130.322585,59.0875676 Z M130.322585,55.4217973 L134.010341,55.4217973 L134.010341,51.7922973 L130.322585,51.7922973 L130.322585,55.4217973 Z M130.322585,51.7922973 L134.010341,51.7922973 L134.010341,48.0712973 L130.322585,48.0712973 L130.322585,51.7922973 Z M130.322585,29.5009189 L134.010341,29.5009189 L134.010341,25.8714189 L130.322585,25.8714189 L130.322585,29.5009189 Z M130.322585,25.8714189 L134.010341,25.8714189 L134.010341,22.1504189 L130.322585,22.1504189 L130.322585,25.8714189 Z M126.616769,59.0875676 L130.322585,59.0875676 L130.322585,55.4217973 L126.616769,55.4217973 L126.616769,59.0875676 Z M126.616769,55.4217973 L130.322585,55.4217973 L130.322585,51.7922973 L126.616769,51.7922973 L126.616769,55.4217973 Z M126.616769,44.3684324 L130.322585,44.3684324 L130.322585,40.6466081 L126.616769,40.6466081 L126.616769,44.3684324 Z M126.616769,40.6466081 L130.322585,40.6466081 L130.322585,36.9437432 L126.616769,36.9437432 L126.616769,40.6466081 Z M126.616769,36.9437432 L130.322585,36.9437432 L130.322585,33.2219189 L126.616769,33.2219189 L126.616769,36.9437432 Z M126.616769,25.8714189 L130.322585,25.8714189 L130.322585,22.1504189 L126.616769,22.1504189 L126.616769,25.8714189 Z M122.910131,59.0875676 L126.616769,59.0875676 L126.616769,55.4217973 L122.910131,55.4217973 L122.910131,59.0875676 Z M122.910131,55.4217973 L126.616769,55.4217973 L126.616769,51.7922973 L122.910131,51.7922973 L122.910131,55.4217973 Z M122.910131,48.0712973 L126.616769,48.0712973 L126.616769,44.3684324 L122.910131,44.3684324 L122.910131,48.0712973 Z M122.910131,44.3684324 L126.616769,44.3684324 L126.616769,40.6466081 L122.910131,40.6466081 L122.910131,44.3684324 Z M122.910131,40.6466081 L126.616769,40.6466081 L126.616769,36.9437432 L122.910131,36.9437432 L122.910131,40.6466081 Z M122.910131,36.9437432 L126.616769,36.9437432 L126.616769,33.2219189 L122.910131,33.2219189 L122.910131,36.9437432 Z M122.910131,33.2219189 L126.616769,33.2219189 L126.616769,29.5009189 L122.910131,29.5009189 L122.910131,33.2219189 Z M122.910131,25.8714189 L126.616769,25.8714189 L126.616769,22.1504189 L122.910131,22.1504189 L122.910131,25.8714189 Z M119.296262,59.0875676 L122.910131,59.0875676 L122.910131,55.4217973 L119.296262,55.4217973 L119.296262,59.0875676 Z M119.296262,55.4217973 L122.910131,55.4217973 L122.910131,51.7922973 L119.296262,51.7922973 L119.296262,55.4217973 Z M119.296262,48.0712973 L122.910131,48.0712973 L122.910131,44.3684324 L119.296262,44.3684324 L119.296262,48.0712973 Z M119.296262,44.3684324 L122.910131,44.3684324 L122.910131,40.6466081 L119.296262,40.6466081 L119.296262,44.3684324 Z M119.296262,40.6466081 L122.910131,40.6466081 L122.910131,36.9437432 L119.296262,36.9437432 L119.296262,40.6466081 Z M119.296262,36.9437432 L122.910131,36.9437432 L122.910131,33.2219189 L119.296262,33.2219189 L119.296262,36.9437432 Z M119.296262,33.2219189 L122.910131,33.2219189 L122.910131,29.5009189 L119.296262,29.5009189 L119.296262,33.2219189 Z M119.296262,25.8714189 L122.910131,25.8714189 L122.910131,22.1504189 L119.296262,22.1504189 L119.296262,25.8714189 Z M115.589624,59.0875676 L119.296262,59.0875676 L119.296262,55.4217973 L115.589624,55.4217973 L115.589624,59.0875676 Z M115.589624,55.4217973 L119.296262,55.4217973 L119.296262,51.7922973 L115.589624,51.7922973 L115.589624,55.4217973 Z M115.589624,25.8714189 L119.296262,25.8714189 L119.296262,22.1504189 L115.589624,22.1504189 L115.589624,25.8714189 Z M111.901869,59.0875676 L115.589624,59.0875676 L115.589624,55.4217973 L111.901869,55.4217973 L111.901869,59.0875676 Z M111.901869,55.4217973 L115.589624,55.4217973 L115.589624,51.7922973 L111.901869,51.7922973 L111.901869,55.4217973 Z M111.901869,25.8714189 L115.589624,25.8714189 L115.589624,22.1504189 L111.901869,22.1504189 L111.901869,25.8714189 Z M108.195231,55.4217973 L111.901869,55.4217973 L111.901869,51.7922973 L108.195231,51.7922973 L108.195231,55.4217973 Z M108.195231,51.7922973 L111.901869,51.7922973 L111.901869,48.0712973 L108.195231,48.0712973 L108.195231,51.7922973 Z M108.195231,48.0712973 L111.901869,48.0712973 L111.901869,44.3684324 L108.195231,44.3684324 L108.195231,48.0712973 Z M108.195231,44.3684324 L111.901869,44.3684324 L111.901869,40.6466081 L108.195231,40.6466081 L108.195231,44.3684324 Z M108.195231,40.6466081 L111.901869,40.6466081 L111.901869,36.9437432 L108.195231,36.9437432 L108.195231,40.6466081 Z M108.195231,36.9437432 L111.901869,36.9437432 L111.901869,33.2219189 L108.195231,33.2219189 L108.195231,36.9437432 Z M108.195231,33.2219189 L111.901869,33.2219189 L111.901869,29.5009189 L108.195231,29.5009189 L108.195231,33.2219189 Z M108.195231,29.5009189 L111.901869,29.5009189 L111.901869,25.8714189 L108.195231,25.8714189 L108.195231,29.5009189 Z M108.195231,25.8714189 L111.901869,25.8714189 L111.901869,22.1504189 L108.195231,22.1504189 L108.195231,25.8714189 Z" id="Fill-17"></path>
                        <path d="M183.272908,56.3780135 L187.853048,56.3780135 L187.853048,51.8021892 L183.272908,51.8021892 L183.272908,56.3780135 Z M183.272908,51.8021892 L187.853048,51.8021892 L187.853048,47.1101351 L183.272908,47.1101351 L183.272908,51.8021892 Z M183.272908,47.1101351 L187.853048,47.1101351 L187.853048,42.4411622 L183.272908,42.4411622 L183.272908,47.1101351 Z M183.272908,42.4411622 L187.853048,42.4411622 L187.853048,37.7482838 L183.272908,37.7482838 L183.272908,42.4411622 Z M183.272908,37.7482838 L187.853048,37.7482838 L187.853048,33.0793108 L183.272908,33.0793108 L183.272908,37.7482838 Z M183.272908,33.0793108 L187.853048,33.0793108 L187.853048,28.3872568 L183.272908,28.3872568 L183.272908,33.0793108 Z M183.272908,28.3872568 L187.853048,28.3872568 L187.853048,23.6952027 L183.272908,23.6952027 L183.272908,28.3872568 Z M178.622987,61 L183.272908,61 L183.272908,56.3780135 L178.622987,56.3780135 L178.622987,61 Z M178.622987,56.3780135 L183.272908,56.3780135 L183.272908,51.8021892 L178.622987,51.8021892 L178.622987,56.3780135 Z M178.622987,51.8021892 L183.272908,51.8021892 L183.272908,47.1101351 L178.622987,47.1101351 L178.622987,51.8021892 Z M178.622987,47.1101351 L183.272908,47.1101351 L183.272908,42.4411622 L178.622987,42.4411622 L178.622987,47.1101351 Z M178.622987,42.4411622 L183.272908,42.4411622 L183.272908,37.7482838 L178.622987,37.7482838 L178.622987,42.4411622 Z M178.622987,37.7482838 L183.272908,37.7482838 L183.272908,33.0793108 L178.622987,33.0793108 L178.622987,37.7482838 Z M178.622987,33.0793108 L183.272908,33.0793108 L183.272908,28.3872568 L178.622987,28.3872568 L178.622987,33.0793108 Z M178.622987,28.3872568 L183.272908,28.3872568 L183.272908,23.6952027 L178.622987,23.6952027 L178.622987,28.3872568 Z M178.622987,23.6952027 L183.272908,23.6952027 L183.272908,19.1193784 L178.622987,19.1193784 L178.622987,23.6952027 Z M173.950079,61 L178.622987,61 L178.622987,56.3780135 L173.950079,56.3780135 L173.950079,61 Z M173.950079,56.3780135 L178.622987,56.3780135 L178.622987,51.8021892 L173.950079,51.8021892 L173.950079,56.3780135 Z M173.950079,51.8021892 L178.622987,51.8021892 L178.622987,47.1101351 L173.950079,47.1101351 L173.950079,51.8021892 Z M173.950079,37.7482838 L178.622987,37.7482838 L178.622987,33.0793108 L173.950079,33.0793108 L173.950079,37.7482838 Z M173.950079,33.0793108 L178.622987,33.0793108 L178.622987,28.3872568 L173.950079,28.3872568 L173.950079,33.0793108 Z M173.950079,23.6952027 L178.622987,23.6952027 L178.622987,19.1193784 L173.950079,19.1193784 L173.950079,23.6952027 Z M173.950079,19.1193784 L178.622987,19.1193784 L178.622987,14.4265 L173.950079,14.4265 L173.950079,19.1193784 Z M169.300157,61 L173.950079,61 L173.950079,56.3780135 L169.300157,56.3780135 L169.300157,61 Z M169.300157,56.3780135 L173.950079,56.3780135 L173.950079,51.8021892 L169.300157,51.8021892 L169.300157,56.3780135 Z M169.300157,33.0793108 L173.950079,33.0793108 L173.950079,28.3872568 L169.300157,28.3872568 L169.300157,33.0793108 Z M169.300157,19.1193784 L173.950079,19.1193784 L173.950079,14.4265 L169.300157,14.4265 L169.300157,19.1193784 Z M164.626428,61 L169.300157,61 L169.300157,56.3780135 L164.626428,56.3780135 L164.626428,61 Z M164.626428,56.3780135 L169.300157,56.3780135 L169.300157,51.8021892 L164.626428,51.8021892 L164.626428,56.3780135 Z M164.626428,47.1101351 L169.300157,47.1101351 L169.300157,42.4411622 L164.626428,42.4411622 L164.626428,47.1101351 Z M164.626428,42.4411622 L169.300157,42.4411622 L169.300157,37.7482838 L164.626428,37.7482838 L164.626428,42.4411622 Z M164.626428,33.0793108 L169.300157,33.0793108 L169.300157,28.3872568 L164.626428,28.3872568 L164.626428,33.0793108 Z M164.626428,28.3872568 L169.300157,28.3872568 L169.300157,23.6952027 L164.626428,23.6952027 L164.626428,28.3872568 Z M164.626428,19.1193784 L169.300157,19.1193784 L169.300157,14.4265 L164.626428,14.4265 L164.626428,19.1193784 Z M159.95352,61 L164.626428,61 L164.626428,56.3780135 L159.95352,56.3780135 L159.95352,61 Z M159.95352,56.3780135 L164.626428,56.3780135 L164.626428,51.8021892 L159.95352,51.8021892 L159.95352,56.3780135 Z M159.95352,47.1101351 L164.626428,47.1101351 L164.626428,42.4411622 L159.95352,42.4411622 L159.95352,47.1101351 Z M159.95352,42.4411622 L164.626428,42.4411622 L164.626428,37.7482838 L159.95352,37.7482838 L159.95352,42.4411622 Z M159.95352,33.0793108 L164.626428,33.0793108 L164.626428,28.3872568 L159.95352,28.3872568 L159.95352,33.0793108 Z M159.95352,28.3872568 L164.626428,28.3872568 L164.626428,23.6952027 L159.95352,23.6952027 L159.95352,28.3872568 Z M159.95352,19.1193784 L164.626428,19.1193784 L164.626428,14.4265 L159.95352,14.4265 L159.95352,19.1193784 Z M155.396367,61 L159.95352,61 L159.95352,56.3780135 L155.396367,56.3780135 L155.396367,61 Z M155.396367,56.3780135 L159.95352,56.3780135 L159.95352,51.8021892 L155.396367,51.8021892 L155.396367,56.3780135 Z M155.396367,47.1101351 L159.95352,47.1101351 L159.95352,42.4411622 L155.396367,42.4411622 L155.396367,47.1101351 Z M155.396367,42.4411622 L159.95352,42.4411622 L159.95352,37.7482838 L155.396367,37.7482838 L155.396367,42.4411622 Z M155.396367,33.0793108 L159.95352,33.0793108 L159.95352,28.3872568 L155.396367,28.3872568 L155.396367,33.0793108 Z M155.396367,28.3872568 L159.95352,28.3872568 L159.95352,23.6952027 L155.396367,23.6952027 L155.396367,28.3872568 Z M155.396367,19.1193784 L159.95352,19.1193784 L159.95352,14.4265 L155.396367,14.4265 L155.396367,19.1193784 Z M150.723459,61 L155.396367,61 L155.396367,56.3780135 L150.723459,56.3780135 L150.723459,61 Z M150.723459,56.3780135 L155.396367,56.3780135 L155.396367,51.8021892 L150.723459,51.8021892 L150.723459,56.3780135 Z M150.723459,42.4411622 L155.396367,42.4411622 L155.396367,37.7482838 L150.723459,37.7482838 L150.723459,42.4411622 Z M150.723459,19.1193784 L155.396367,19.1193784 L155.396367,14.4265 L150.723459,14.4265 L150.723459,19.1193784 Z M146.073537,56.3780135 L150.723459,56.3780135 L150.723459,51.8021892 L146.073537,51.8021892 L146.073537,56.3780135 Z M146.073537,51.8021892 L150.723459,51.8021892 L150.723459,47.1101351 L146.073537,47.1101351 L146.073537,51.8021892 Z M146.073537,42.4411622 L150.723459,42.4411622 L150.723459,37.7482838 L146.073537,37.7482838 L146.073537,42.4411622 Z M146.073537,37.7482838 L150.723459,37.7482838 L150.723459,33.0793108 L146.073537,33.0793108 L146.073537,37.7482838 Z M146.073537,23.6952027 L150.723459,23.6952027 L150.723459,19.1193784 L146.073537,19.1193784 L146.073537,23.6952027 Z M146.073537,19.1193784 L150.723459,19.1193784 L150.723459,14.4265 L146.073537,14.4265 L146.073537,19.1193784 Z M141.399808,51.8021892 L146.073537,51.8021892 L146.073537,47.1101351 L141.399808,47.1101351 L141.399808,51.8021892 Z M141.399808,47.1101351 L146.073537,47.1101351 L146.073537,42.4411622 L141.399808,42.4411622 L141.399808,47.1101351 Z M141.399808,42.4411622 L146.073537,42.4411622 L146.073537,37.7482838 L141.399808,37.7482838 L141.399808,42.4411622 Z M141.399808,37.7482838 L146.073537,37.7482838 L146.073537,33.0793108 L141.399808,33.0793108 L141.399808,37.7482838 Z M141.399808,33.0793108 L146.073537,33.0793108 L146.073537,28.3872568 L141.399808,28.3872568 L141.399808,33.0793108 Z M141.399808,28.3872568 L146.073537,28.3872568 L146.073537,23.6952027 L141.399808,23.6952027 L141.399808,28.3872568 Z M141.399808,23.6952027 L146.073537,23.6952027 L146.073537,19.1193784 L141.399808,19.1193784 L141.399808,23.6952027 Z" id="Fill-18"></path>
                    </g>
                </g>
            </g>
        </g>
    </g>
</svg>